<svg width="19" height="19" viewBox="0 0 19 19" fill="none"
    xmlns="http://www.w3.org/2000/svg">
    <path fillRule="evenodd" clipRule="evenodd" d="M17.502 9.98862C17.502 14.4069 13.9202 17.9886 9.50195 17.9886C5.08368 17.9886 1.50195 14.4069 1.50195 9.98862C1.50195 5.57034 5.08368 1.98862 9.50195 1.98862C13.9202 1.98862 17.502 5.57034 17.502 9.98862ZM18.502 9.98862C18.502 14.9592 14.4725 18.9886 9.50195 18.9886C4.53139 18.9886 0.501953 14.9592 0.501953 9.98862C0.501953 5.01805 4.53139 0.988617 9.50195 0.988617C14.4725 0.988617 18.502 5.01805 18.502 9.98862ZM6.11354 5.82318L7.74243 6.724V7.55619L4.71462 7.82666L7.74243 8.84991V9.18178L3.88712 9.98419L7.74243 10.7866V11.1185L4.71462 12.1417L7.74243 12.4122V13.1274L5.9021 14.1452L7.74243 14.1427V14.1498H11.0704C11.6211 14.1498 12.104 14.054 12.519 13.8625C12.934 13.663 13.2492 13.3956 13.4647 13.0604C13.6881 12.7172 13.7999 12.3342 13.7999 11.9112C13.7999 11.4164 13.6442 10.9734 13.333 10.5824C13.0217 10.1913 12.6427 9.95588 12.1957 9.87608C12.6267 9.72444 12.9699 9.48901 13.2253 9.16977C13.4806 8.85054 13.6083 8.4515 13.6083 7.97265C13.6083 7.57361 13.5046 7.21447 13.2971 6.89524C13.0896 6.56803 12.7823 6.30865 12.3753 6.11711C11.9683 5.92557 11.4814 5.8298 10.9148 5.8298H8.43979L8.44139 5.82629L6.11354 5.82318ZM9.10715 9.3254H10.7951C11.242 9.3254 11.5892 9.22564 11.8366 9.02612C12.092 8.81862 12.2197 8.52333 12.2197 8.14025C12.2197 7.76515 12.092 7.47385 11.8366 7.26635C11.5892 7.05087 11.242 6.94313 10.7951 6.94313H9.10715V9.3254ZM10.9507 13.0365C11.4136 13.0365 11.7767 12.9247 12.0401 12.7013C12.3035 12.4778 12.4352 12.1666 12.4352 11.7675C12.4352 11.3605 12.2955 11.0373 12.0162 10.7979C11.7368 10.5584 11.3657 10.4387 10.9028 10.4387H9.10715V13.0365H10.9507Z" fill="#CCCCCC"/>
</svg>
