<svg width="24" height="24" viewBox="0 0 33 30" fill="none" xmlns="http://www.w3.org/2000/svg">
<path fill-rule="evenodd" clipRule="evenodd" d="M4.00208 0H29.5021C31.3621 0 32.8771 1.5105 32.8771 3.3705V26.631C32.8771 28.488 31.3621 30 29.5021 30H4.00208C2.14208 30 0.627075 28.488 0.627075 26.631V3.3705C0.627075 1.5105 2.14208 0 4.00208 0ZM29.5021 27.75C30.1231 27.75 30.6271 27.246 30.6271 26.631V3.3705C30.6271 2.7525 30.1231 2.25 29.5021 2.25H4.00208C3.38108 2.25 2.87708 2.7525 2.87708 3.3705V26.631C2.87708 27.246 3.38108 27.75 4.00208 27.75H29.5021ZM12.8417 11H10.5779V15.7109H10.5128L7.54879 11H5.62708V20H7.89079V15.2715H7.93965L10.9525 20H12.8417V11ZM13.9124 20H16.1762V16.4844H19.417V14.5156H16.1762V12.9688H19.7753V11H13.9124V20ZM22.8879 12.9688H20.3799V11H27.6271V12.9688H25.1191V20H22.8879V12.9688Z" fill="#D8DBDE"/>
</svg>
