<svg width="340" height="114" viewBox="0 0 340 114" fill="none" xmlns="http://www.w3.org/2000/svg">
<circle cx="40.2329" cy="57.4556" r="39.8589" fill="#7E00A3"/>
<circle cx="40.2329" cy="57.4556" r="37.4736" fill="#6184FF"/>
<circle cx="40.2329" cy="57.4556" r="35.1511" fill="#29125E"/>
<rect x="40.4578" y="75.4487" width="22.9413" height="35.9863" transform="rotate(-180 40.4578 75.4487)" fill="#6184FF"/>
<rect x="62.9492" y="75.4487" width="22.9413" height="35.9863" transform="rotate(-180 62.9492 75.4487)" fill="#29125E"/>
<path d="M40.2122 75.4487L17.7207 39.4624L62.7036 39.4624L40.2122 75.4487Z" fill="#C600FF"/>
<path d="M116.476 90.6872C111.346 90.6872 107.04 89.9588 103.556 88.5022C100.136 87.0455 97.603 85.3038 95.9563 83.2772C94.3097 81.2505 93.4863 79.4455 93.4863 77.8622C93.4863 77.2288 93.708 76.7222 94.1513 76.3422C94.658 75.8988 95.1963 75.6772 95.7663 75.6772H106.596C106.976 75.6772 107.325 75.8355 107.641 76.1522C108.401 76.6588 108.971 77.0705 109.351 77.3872C110.745 78.4005 111.948 79.1605 112.961 79.6672C114.038 80.1105 115.336 80.3322 116.856 80.3322C118.693 80.3322 120.181 79.9838 121.321 79.2872C122.525 78.5272 123.126 77.4822 123.126 76.1522C123.126 75.0755 122.81 74.2205 122.176 73.5872C121.606 72.9538 120.466 72.3522 118.756 71.7822C117.046 71.1488 114.45 70.4838 110.966 69.7872C105.71 68.7105 101.656 66.9688 98.8063 64.5622C96.0197 62.0922 94.6263 58.7988 94.6263 54.6822C94.6263 52.0855 95.4497 49.6155 97.0963 47.2722C98.743 44.9288 101.181 43.0288 104.411 41.5722C107.705 40.1155 111.6 39.3872 116.096 39.3872C120.593 39.3872 124.52 40.0838 127.876 41.4772C131.233 42.8705 133.766 44.5805 135.476 46.6072C137.25 48.5705 138.136 50.3755 138.136 52.0222C138.136 52.5922 137.915 53.0988 137.471 53.5422C137.091 53.9855 136.616 54.2072 136.046 54.2072H126.166C125.66 54.2072 125.185 54.0488 124.741 53.7322C123.918 53.2888 123.19 52.8138 122.556 52.3072C121.48 51.4838 120.466 50.8505 119.516 50.4072C118.566 49.9638 117.395 49.7422 116.001 49.7422C114.355 49.7422 113.025 50.1222 112.011 50.8822C111.061 51.6422 110.586 52.6238 110.586 53.8272C110.586 54.7772 110.84 55.5688 111.346 56.2022C111.916 56.8355 113.056 57.4688 114.766 58.1022C116.54 58.6722 119.136 59.2738 122.556 59.9072C128.7 60.9838 133.165 62.8838 135.951 65.6072C138.801 68.3305 140.226 71.5288 140.226 75.2022C140.226 79.8888 138.136 83.6572 133.956 86.5072C129.776 89.2938 123.95 90.6872 116.476 90.6872ZM172.026 90.6872C164.173 90.6872 158.124 88.8188 153.881 85.0822C149.638 81.3455 147.326 76.0888 146.946 69.3122C146.883 68.4888 146.851 67.0638 146.851 65.0372C146.851 63.0105 146.883 61.5855 146.946 60.7622C147.326 54.0488 149.701 48.8238 154.071 45.0872C158.441 41.2872 164.426 39.3872 172.026 39.3872C179.689 39.3872 185.706 41.2872 190.076 45.0872C194.446 48.8238 196.821 54.0488 197.201 60.7622C197.264 61.5855 197.296 63.0105 197.296 65.0372C197.296 67.0638 197.264 68.4888 197.201 69.3122C196.821 76.0888 194.509 81.3455 190.266 85.0822C186.023 88.8188 179.943 90.6872 172.026 90.6872ZM172.026 79.0972C174.813 79.0972 176.871 78.2738 178.201 76.6272C179.531 74.9172 180.291 72.3205 180.481 68.8372C180.544 68.2038 180.576 66.9372 180.576 65.0372C180.576 63.1372 180.544 61.8705 180.481 61.2372C180.291 57.8172 179.499 55.2522 178.106 53.5422C176.776 51.8322 174.749 50.9772 172.026 50.9772C166.769 50.9772 163.983 54.3972 163.666 61.2372L163.571 65.0372L163.666 68.8372C163.793 72.3205 164.521 74.9172 165.851 76.6272C167.244 78.2738 169.303 79.0972 172.026 79.0972ZM227.062 90.6872C221.932 90.6872 217.626 89.9588 214.142 88.5022C210.722 87.0455 208.189 85.3038 206.542 83.2772C204.896 81.2505 204.072 79.4455 204.072 77.8622C204.072 77.2288 204.294 76.7222 204.737 76.3422C205.244 75.8988 205.782 75.6772 206.352 75.6772H217.182C217.562 75.6772 217.911 75.8355 218.227 76.1522C218.987 76.6588 219.557 77.0705 219.937 77.3872C221.331 78.4005 222.534 79.1605 223.547 79.6672C224.624 80.1105 225.922 80.3322 227.442 80.3322C229.279 80.3322 230.767 79.9838 231.907 79.2872C233.111 78.5272 233.712 77.4822 233.712 76.1522C233.712 75.0755 233.396 74.2205 232.762 73.5872C232.192 72.9538 231.052 72.3522 229.342 71.7822C227.632 71.1488 225.036 70.4838 221.552 69.7872C216.296 68.7105 212.242 66.9688 209.392 64.5622C206.606 62.0922 205.212 58.7988 205.212 54.6822C205.212 52.0855 206.036 49.6155 207.682 47.2722C209.329 44.9288 211.767 43.0288 214.997 41.5722C218.291 40.1155 222.186 39.3872 226.682 39.3872C231.179 39.3872 235.106 40.0838 238.462 41.4772C241.819 42.8705 244.352 44.5805 246.062 46.6072C247.836 48.5705 248.722 50.3755 248.722 52.0222C248.722 52.5922 248.501 53.0988 248.057 53.5422C247.677 53.9855 247.202 54.2072 246.632 54.2072H236.752C236.246 54.2072 235.771 54.0488 235.327 53.7322C234.504 53.2888 233.776 52.8138 233.142 52.3072C232.066 51.4838 231.052 50.8505 230.102 50.4072C229.152 49.9638 227.981 49.7422 226.587 49.7422C224.941 49.7422 223.611 50.1222 222.597 50.8822C221.647 51.6422 221.172 52.6238 221.172 53.8272C221.172 54.7772 221.426 55.5688 221.932 56.2022C222.502 56.8355 223.642 57.4688 225.352 58.1022C227.126 58.6722 229.722 59.2738 233.142 59.9072C239.286 60.9838 243.751 62.8838 246.537 65.6072C249.387 68.3305 250.812 71.5288 250.812 75.2022C250.812 79.8888 248.722 83.6572 244.542 86.5072C240.362 89.2938 234.536 90.6872 227.062 90.6872ZM282.612 90.6872C274.759 90.6872 268.71 88.8188 264.467 85.0822C260.224 81.3455 257.912 76.0888 257.532 69.3122C257.469 68.4888 257.437 67.0638 257.437 65.0372C257.437 63.0105 257.469 61.5855 257.532 60.7622C257.912 54.0488 260.287 48.8238 264.657 45.0872C269.027 41.2872 275.012 39.3872 282.612 39.3872C290.275 39.3872 296.292 41.2872 300.662 45.0872C305.032 48.8238 307.407 54.0488 307.787 60.7622C307.85 61.5855 307.882 63.0105 307.882 65.0372C307.882 67.0638 307.85 68.4888 307.787 69.3122C307.407 76.0888 305.095 81.3455 300.852 85.0822C296.609 88.8188 290.529 90.6872 282.612 90.6872ZM282.612 79.0972C285.399 79.0972 287.457 78.2738 288.787 76.6272C290.117 74.9172 290.877 72.3205 291.067 68.8372C291.13 68.2038 291.162 66.9372 291.162 65.0372C291.162 63.1372 291.13 61.8705 291.067 61.2372C290.877 57.8172 290.085 55.2522 288.692 53.5422C287.362 51.8322 285.335 50.9772 282.612 50.9772C277.355 50.9772 274.569 54.3972 274.252 61.2372L274.157 65.0372L274.252 68.8372C274.379 72.3205 275.107 74.9172 276.437 76.6272C277.83 78.2738 279.889 79.0972 282.612 79.0972ZM319.693 89.7372C319.06 89.7372 318.49 89.5155 317.983 89.0722C317.54 88.5655 317.318 87.9955 317.318 87.3622V24.6622C317.318 23.9655 317.54 23.3955 317.983 22.9522C318.49 22.5088 319.06 22.2872 319.693 22.2872H330.903C331.6 22.2872 332.17 22.5088 332.613 22.9522C333.057 23.3955 333.278 23.9655 333.278 24.6622V87.3622C333.278 88.0588 333.057 88.6288 332.613 89.0722C332.17 89.5155 331.6 89.7372 330.903 89.7372H319.693Z" fill="#C600FF"/>
</svg>
