<svg width="464" height="148" viewBox="0 0 464 148" fill="none" xmlns="http://www.w3.org/2000/svg">
<circle cx="40.2959" cy="57.2371" r="39.6076" fill="#7E00A3"/>
<circle cx="40.2959" cy="57.2371" r="37.2374" fill="#6184FF"/>
<circle cx="40.2959" cy="57.2371" r="34.9295" fill="#29125E"/>
<path d="M39.9936 29.318L24.5117 39.7L24.5116 52.0856L33.0723 57.9141L25.4223 63.5604V74.671L40.7222 85.053L55.2934 75.2174L54.9291 62.4676L47.6435 57.1855L54.3827 51.9034L54.747 40.0643L39.9936 29.318Z" fill="#C600FF"/>
<mask id="path-5-outside-1" maskUnits="userSpaceOnUse" x="22.1392" y="26.4204" width="37" height="62" fill="black">
<rect fill="white" x="22.1392" y="26.4204" width="37" height="62"/>
<path fill-rule="evenodd" clip-rule="evenodd" d="M39.8971 31.268L27.1342 39.9843L27.1342 51.3455L42.7173 61.9878L42.6958 62.0025H42.7847L42.7847 74.7982H38.7963L38.7963 63.1621L33.8006 59.7503L27.9319 63.7583L27.9319 74.4901L40.6947 83.2063L53.4576 74.49V63.1116L37.8811 52.4738L37.9029 52.4589L37.9029 39.9611H41.8913L41.8913 51.3604L47.2761 55.0379L52.6599 51.3611V39.9843L39.8971 31.268ZM40.6947 87.0494L40.7013 87.0539L57.4411 75.6217H57.446V75.6183L57.4526 75.6138L57.446 75.6093V62.0025H57.4311L57.4526 61.9878L50.0963 56.9639L56.6549 52.4848L56.6388 52.4738H56.6483V38.865L56.6549 38.8605L56.6483 38.856V38.8547H56.6464L39.9036 27.4204L39.8971 27.4249L39.8905 27.4204L23.1478 38.8547H23.1458V38.856L23.1392 38.8605L23.1458 38.865L23.1458 52.4738H23.1459L30.9803 57.8243L23.9435 62.63H23.9435L23.9435 75.6093L23.9369 75.6138L23.9435 75.6183V75.6217H23.9484L40.6882 87.0539L40.6947 87.0494Z"/>
</mask>
<path fill-rule="evenodd" clip-rule="evenodd" d="M39.8971 31.268L27.1342 39.9843L27.1342 51.3455L42.7173 61.9878L42.6958 62.0025H42.7847L42.7847 74.7982H38.7963L38.7963 63.1621L33.8006 59.7503L27.9319 63.7583L27.9319 74.4901L40.6947 83.2063L53.4576 74.49V63.1116L37.8811 52.4738L37.9029 52.4589L37.9029 39.9611H41.8913L41.8913 51.3604L47.2761 55.0379L52.6599 51.3611V39.9843L39.8971 31.268ZM40.6947 87.0494L40.7013 87.0539L57.4411 75.6217H57.446V75.6183L57.4526 75.6138L57.446 75.6093V62.0025H57.4311L57.4526 61.9878L50.0963 56.9639L56.6549 52.4848L56.6388 52.4738H56.6483V38.865L56.6549 38.8605L56.6483 38.856V38.8547H56.6464L39.9036 27.4204L39.8971 27.4249L39.8905 27.4204L23.1478 38.8547H23.1458V38.856L23.1392 38.8605L23.1458 38.865L23.1458 52.4738H23.1459L30.9803 57.8243L23.9435 62.63H23.9435L23.9435 75.6093L23.9369 75.6138L23.9435 75.6183V75.6217H23.9484L40.6882 87.0539L40.6947 87.0494Z" fill="#450059"/>
<path d="M27.1342 39.9843L26.5702 39.1585C26.2974 39.3448 26.1342 39.6539 26.1342 39.9843L27.1342 39.9843ZM39.8971 31.268L40.461 30.4422C40.1209 30.2099 39.6732 30.2099 39.3331 30.4422L39.8971 31.268ZM27.1342 51.3455L26.1342 51.3455C26.1342 51.6759 26.2974 51.985 26.5702 52.1713L27.1342 51.3455ZM42.7173 61.9878L43.2813 62.8136C43.5541 62.6273 43.7173 62.3182 43.7173 61.9878C43.7173 61.6574 43.5541 61.3484 43.2813 61.162L42.7173 61.9878ZM42.6958 62.0025L42.1318 61.1767C41.7696 61.4241 41.6109 61.8786 41.7403 62.2977C41.8698 62.7167 42.2572 63.0025 42.6958 63.0025V62.0025ZM42.7847 62.0025L43.7847 62.0025C43.7847 61.7373 43.6794 61.483 43.4918 61.2954C43.3043 61.1079 43.0499 61.0025 42.7847 61.0025V62.0025ZM42.7847 74.7982V75.7982C43.337 75.7982 43.7847 75.3505 43.7847 74.7982L42.7847 74.7982ZM38.7963 74.7982L37.7963 74.7982C37.7963 75.0635 37.9017 75.3178 38.0892 75.5053C38.2768 75.6929 38.5311 75.7982 38.7963 75.7982V74.7982ZM38.7963 63.1621L39.7963 63.1621C39.7963 62.8317 39.6331 62.5226 39.3603 62.3363L38.7963 63.1621ZM33.8006 59.7503L34.3645 58.9245C34.0244 58.6922 33.5767 58.6922 33.2366 58.9245L33.8006 59.7503ZM27.9319 63.7583L27.3679 62.9325C27.0951 63.1188 26.9319 63.4279 26.9319 63.7583L27.9319 63.7583ZM27.9319 74.4901L26.9319 74.4901C26.9319 74.8204 27.0951 75.1295 27.3679 75.3158L27.9319 74.4901ZM40.6947 83.2063L40.1308 84.0321C40.4709 84.2644 40.9186 84.2644 41.2587 84.0321L40.6947 83.2063ZM53.4576 74.49L54.0216 75.3158C54.2944 75.1295 54.4576 74.8204 54.4576 74.49H53.4576ZM53.4576 63.1116H54.4576C54.4576 62.7812 54.2944 62.4721 54.0216 62.2858L53.4576 63.1116ZM37.8811 52.4738L37.3171 51.648C37.0443 51.8343 36.8811 52.1434 36.8811 52.4738C36.8811 52.8042 37.0443 53.1132 37.3171 53.2996L37.8811 52.4738ZM37.9029 52.4589L38.4668 53.2847C38.7397 53.0984 38.9029 52.7893 38.9029 52.4589L37.9029 52.4589ZM37.9029 39.9611V38.9611C37.6376 38.9611 37.3833 39.0664 37.1958 39.254C37.0082 39.4415 36.9029 39.6958 36.9029 39.9611L37.9029 39.9611ZM41.8913 39.9611L42.8913 39.9611C42.8913 39.4088 42.4435 38.9611 41.8913 38.9611V39.9611ZM41.8913 51.3604L40.8913 51.3604C40.8913 51.6908 41.0545 51.9998 41.3273 52.1862L41.8913 51.3604ZM47.2761 55.0379L46.7121 55.8637C47.0522 56.096 47.5 56.096 47.8401 55.8637L47.2761 55.0379ZM52.6599 51.3611L53.2239 52.1869C53.4968 52.0005 53.6599 51.6915 53.6599 51.3611H52.6599ZM52.6599 39.9843H53.6599C53.6599 39.6539 53.4968 39.3448 53.2239 39.1585L52.6599 39.9843ZM40.6947 87.0494L41.2588 86.2237C40.9187 85.9913 40.4709 85.9913 40.1308 86.2236L40.6947 87.0494ZM40.7013 87.0539L40.1373 87.8796C40.4774 88.112 40.9252 88.112 41.2653 87.8797L40.7013 87.0539ZM57.4411 75.6217V74.6217C57.2399 74.6217 57.0433 74.6824 56.8771 74.7959L57.4411 75.6217ZM57.446 75.6217V76.6217C57.9983 76.6217 58.446 76.174 58.446 75.6217H57.446ZM57.446 75.6183L56.8821 74.7925C56.6092 74.9788 56.446 75.2879 56.446 75.6183H57.446ZM57.4526 75.6138L58.0166 76.4396C58.2894 76.2533 58.4526 75.9442 58.4526 75.6138C58.4526 75.2834 58.2894 74.9743 58.0166 74.788L57.4526 75.6138ZM57.446 75.6093H56.446C56.446 75.9397 56.6092 76.2488 56.8821 76.4351L57.446 75.6093ZM57.446 62.0025H58.446C58.446 61.4502 57.9983 61.0025 57.446 61.0025V62.0025ZM57.4311 62.0025L56.8671 61.1767C56.5049 61.4241 56.3462 61.8786 56.4756 62.2976C56.6051 62.7167 56.9925 63.0025 57.4311 63.0025V62.0025ZM57.4526 61.9878L58.0166 62.8136C58.2894 62.6273 58.4526 62.3182 58.4526 61.9878C58.4526 61.6574 58.2894 61.3484 58.0166 61.162L57.4526 61.9878ZM50.0963 56.9639L49.5324 56.1381C49.2595 56.3245 49.0963 56.6335 49.0963 56.9639C49.0963 57.2943 49.2595 57.6034 49.5324 57.7897L50.0963 56.9639ZM56.6549 52.4848L57.2189 53.3106C57.4917 53.1243 57.6549 52.8152 57.6549 52.4848C57.6549 52.1545 57.4917 51.8454 57.2189 51.659L56.6549 52.4848ZM56.6388 52.4738V51.4738C56.2002 51.4738 55.8128 51.7596 55.6833 52.1787C55.5539 52.5977 55.7126 53.0522 56.0748 53.2996L56.6388 52.4738ZM56.6483 52.4738V53.4738C57.2006 53.4738 57.6483 53.0261 57.6483 52.4738H56.6483ZM56.6483 38.865L56.0844 38.0392C55.8115 38.2255 55.6483 38.5346 55.6483 38.865H56.6483ZM56.6549 38.8605L57.2189 39.6863C57.4917 39.5 57.6549 39.1909 57.6549 38.8605C57.6549 38.5301 57.4917 38.221 57.2189 38.0347L56.6549 38.8605ZM56.6483 38.856H55.6483C55.6483 39.1864 55.8115 39.4955 56.0844 39.6818L56.6483 38.856ZM56.6483 38.8547H57.6483C57.6483 38.3024 57.2006 37.8547 56.6483 37.8547V38.8547ZM56.6464 38.8547L56.0824 39.6805C56.2486 39.7939 56.4451 39.8547 56.6464 39.8547V38.8547ZM39.9036 27.4204L40.4676 26.5946C40.1275 26.3624 39.6798 26.3623 39.3397 26.5946L39.9036 27.4204ZM39.8971 27.4249L39.333 28.2507C39.6731 28.4829 40.1209 28.483 40.461 28.2507L39.8971 27.4249ZM39.8905 27.4204L40.4545 26.5947C40.1144 26.3623 39.6667 26.3623 39.3265 26.5946L39.8905 27.4204ZM23.1478 38.8547V39.8547C23.349 39.8547 23.5456 39.7939 23.7117 39.6805L23.1478 38.8547ZM23.1458 38.8547V37.8547C22.5935 37.8547 22.1458 38.3024 22.1458 38.8547H23.1458ZM23.1458 38.856L23.7097 39.6818C23.9826 39.4955 24.1458 39.1864 24.1458 38.856H23.1458ZM23.1392 38.8605L22.5753 38.0347C22.3024 38.221 22.1392 38.5301 22.1392 38.8605C22.1392 39.1909 22.3024 39.5 22.5753 39.6863L23.1392 38.8605ZM23.1458 38.865L24.1458 38.865C24.1458 38.5346 23.9826 38.2255 23.7097 38.0392L23.1458 38.865ZM23.1458 52.4738L22.1458 52.4738C22.1458 53.0261 22.5935 53.4738 23.1458 53.4738V52.4738ZM23.1459 52.4738L23.7098 51.648C23.5437 51.5345 23.3471 51.4738 23.1459 51.4738V52.4738ZM30.9803 57.8243L31.5443 58.6501C31.8171 58.4637 31.9803 58.1547 31.9803 57.8243C31.9803 57.4939 31.8171 57.1848 31.5443 56.9985L30.9803 57.8243ZM23.9435 62.63V63.63C24.1448 63.63 24.3413 63.5692 24.5075 63.4557L23.9435 62.63ZM23.9435 62.63V61.63C23.3912 61.63 22.9435 62.0777 22.9435 62.63L23.9435 62.63ZM23.9435 75.6093L24.5074 76.4351C24.7802 76.2488 24.9435 75.9397 24.9435 75.6093L23.9435 75.6093ZM23.9369 75.6138L23.373 74.788C23.1001 74.9743 22.9369 75.2834 22.9369 75.6138C22.9369 75.9442 23.1001 76.2533 23.373 76.4396L23.9369 75.6138ZM23.9435 75.6183H24.9435C24.9435 75.2879 24.7802 74.9788 24.5074 74.7925L23.9435 75.6183ZM23.9435 75.6217H22.9435C22.9435 76.174 23.3912 76.6217 23.9435 76.6217V75.6217ZM23.9484 75.6217L24.5124 74.7959C24.3462 74.6824 24.1496 74.6217 23.9484 74.6217V75.6217ZM40.6882 87.0539L40.1242 87.8797C40.4643 88.112 40.912 88.112 41.2521 87.8797L40.6882 87.0539ZM27.6981 40.8101L40.461 32.0938L39.3331 30.4422L26.5702 39.1585L27.6981 40.8101ZM28.1342 51.3455L28.1342 39.9843L26.1342 39.9843L26.1342 51.3455L28.1342 51.3455ZM43.2813 61.162L27.6981 50.5197L26.5702 52.1713L42.1533 62.8136L43.2813 61.162ZM43.2597 62.8283L43.2813 62.8136L42.1533 61.162L42.1318 61.1767L43.2597 62.8283ZM42.7847 61.0025H42.6958V63.0025H42.7847V61.0025ZM43.7847 74.7982L43.7847 62.0025L41.7847 62.0025L41.7847 74.7982L43.7847 74.7982ZM38.7963 75.7982H42.7847V73.7982H38.7963V75.7982ZM37.7963 63.1621L37.7963 74.7982L39.7963 74.7982L39.7963 63.1621L37.7963 63.1621ZM33.2366 60.5761L38.2324 63.9879L39.3603 62.3363L34.3645 58.9245L33.2366 60.5761ZM28.4958 64.5841L34.3645 60.5761L33.2366 58.9245L27.3679 62.9325L28.4958 64.5841ZM28.9319 74.4901L28.9319 63.7583L26.9319 63.7583L26.9319 74.4901L28.9319 74.4901ZM27.3679 75.3158L40.1308 84.0321L41.2587 82.3805L28.4958 73.6643L27.3679 75.3158ZM52.8937 73.6643L40.1308 82.3805L41.2587 84.0321L54.0216 75.3158L52.8937 73.6643ZM52.4576 63.1116V74.49H54.4576V63.1116H52.4576ZM37.3171 53.2996L52.8937 63.9374L54.0216 62.2858L38.4451 51.648L37.3171 53.2996ZM37.3389 51.6331L37.3171 51.648L38.4451 53.2996L38.4668 53.2847L37.3389 51.6331ZM36.9029 39.9611L36.9029 52.4589L38.9029 52.4589L38.9029 39.9611L36.9029 39.9611ZM41.8913 38.9611H37.9029V40.9611H41.8913V38.9611ZM42.8913 51.3604L42.8913 39.9611L40.8913 39.9611L40.8913 51.3604L42.8913 51.3604ZM47.8401 54.2121L42.4552 50.5346L41.3273 52.1862L46.7121 55.8637L47.8401 54.2121ZM52.096 50.5353L46.7121 54.2121L47.8401 55.8637L53.2239 52.1869L52.096 50.5353ZM51.6599 39.9843V51.3611H53.6599V39.9843H51.6599ZM39.3331 32.0938L52.096 40.8101L53.2239 39.1585L40.461 30.4422L39.3331 32.0938ZM40.1307 87.8751L40.1373 87.8796L41.2654 86.2282L41.2588 86.2237L40.1307 87.8751ZM41.2653 87.8797L58.0051 76.4475L56.8771 74.7959L40.1374 86.2281L41.2653 87.8797ZM57.4411 76.6217H57.446V74.6217H57.4411V76.6217ZM58.446 75.6217V75.6183H56.446V75.6217H58.446ZM58.01 76.4441L58.0166 76.4396L56.8887 74.788L56.8821 74.7925L58.01 76.4441ZM58.0166 74.788L58.01 74.7835L56.8821 76.4351L56.8887 76.4396L58.0166 74.788ZM58.446 75.6093V62.0025H56.446V75.6093H58.446ZM57.446 61.0025H57.4311V63.0025H57.446V61.0025ZM57.995 62.8283L58.0166 62.8136L56.8887 61.162L56.8671 61.1767L57.995 62.8283ZM58.0166 61.162L50.6603 56.1381L49.5324 57.7897L56.8886 62.8136L58.0166 61.162ZM50.6603 57.7897L57.2189 53.3106L56.091 51.659L49.5324 56.1381L50.6603 57.7897ZM57.2189 51.659L57.2028 51.648L56.0748 53.2996L56.0909 53.3106L57.2189 51.659ZM56.6388 53.4738H56.6483V51.4738H56.6388V53.4738ZM57.6483 52.4738V38.865H55.6483V52.4738H57.6483ZM57.2123 39.6908L57.2189 39.6863L56.091 38.0347L56.0844 38.0392L57.2123 39.6908ZM57.2189 38.0347L57.2123 38.0302L56.0844 39.6818L56.091 39.6863L57.2189 38.0347ZM57.6483 38.856V38.8547H55.6483V38.856H57.6483ZM56.6483 37.8547H56.6464V39.8547H56.6483V37.8547ZM57.2103 38.0289L40.4676 26.5946L39.3397 28.2462L56.0824 39.6805L57.2103 38.0289ZM39.3397 26.5946L39.3332 26.5991L40.461 28.2507L40.4676 28.2462L39.3397 26.5946ZM40.4611 26.5991L40.4545 26.5947L39.3265 28.2462L39.333 28.2507L40.4611 26.5991ZM39.3265 26.5946L22.5838 38.0289L23.7117 39.6805L40.4545 28.2462L39.3265 26.5946ZM23.1478 37.8547H23.1458V39.8547H23.1478V37.8547ZM22.1458 38.8547V38.856H24.1458V38.8547H22.1458ZM22.5818 38.0302L22.5753 38.0347L23.7032 39.6863L23.7097 39.6818L22.5818 38.0302ZM22.5753 39.6863L22.5818 39.6908L23.7097 38.0392L23.7032 38.0347L22.5753 39.6863ZM22.1458 38.865L22.1458 52.4738L24.1458 52.4738L24.1458 38.865L22.1458 38.865ZM23.1458 53.4738H23.1459V51.4738H23.1458V53.4738ZM22.5819 53.2996L30.4164 58.6501L31.5443 56.9985L23.7098 51.648L22.5819 53.2996ZM30.4164 56.9985L23.3796 61.8042L24.5075 63.4557L31.5443 58.6501L30.4164 56.9985ZM23.9435 61.63H23.9435V63.63H23.9435V61.63ZM22.9435 62.63L22.9435 75.6093L24.9435 75.6093L24.9435 62.63L22.9435 62.63ZM24.5008 76.4396L24.5074 76.4351L23.3795 74.7835L23.373 74.788L24.5008 76.4396ZM24.5074 74.7925L24.5008 74.788L23.373 76.4396L23.3795 76.4441L24.5074 74.7925ZM22.9435 75.6183V75.6217H24.9435V75.6183H22.9435ZM23.9435 76.6217H23.9484V74.6217H23.9435V76.6217ZM41.2521 86.2281L24.5124 74.7959L23.3844 76.4475L40.1242 87.8797L41.2521 86.2281ZM40.1308 86.2236L40.1242 86.2281L41.2521 87.8797L41.2587 87.8752L40.1308 86.2236Z" fill="#C600FF" mask="url(#path-5-outside-1)"/>
<path d="M117.476 90.6872C112.346 90.6872 108.04 89.9588 104.556 88.5022C101.136 87.0455 98.603 85.3038 96.9563 83.2772C95.3097 81.2505 94.4863 79.4455 94.4863 77.8622C94.4863 77.2288 94.708 76.7222 95.1513 76.3422C95.658 75.8988 96.1963 75.6772 96.7663 75.6772H107.596C107.976 75.6772 108.325 75.8355 108.641 76.1522C109.401 76.6588 109.971 77.0705 110.351 77.3872C111.745 78.4005 112.948 79.1605 113.961 79.6672C115.038 80.1105 116.336 80.3322 117.856 80.3322C119.693 80.3322 121.181 79.9838 122.321 79.2872C123.525 78.5272 124.126 77.4822 124.126 76.1522C124.126 75.0755 123.81 74.2205 123.176 73.5872C122.606 72.9538 121.466 72.3522 119.756 71.7822C118.046 71.1488 115.45 70.4838 111.966 69.7872C106.71 68.7105 102.656 66.9688 99.8063 64.5622C97.0197 62.0922 95.6263 58.7988 95.6263 54.6822C95.6263 52.0855 96.4497 49.6155 98.0963 47.2722C99.743 44.9288 102.181 43.0288 105.411 41.5722C108.705 40.1155 112.6 39.3872 117.096 39.3872C121.593 39.3872 125.52 40.0838 128.876 41.4772C132.233 42.8705 134.766 44.5805 136.476 46.6072C138.25 48.5705 139.136 50.3755 139.136 52.0222C139.136 52.5922 138.915 53.0988 138.471 53.5422C138.091 53.9855 137.616 54.2072 137.046 54.2072H127.166C126.66 54.2072 126.185 54.0488 125.741 53.7322C124.918 53.2888 124.19 52.8138 123.556 52.3072C122.48 51.4838 121.466 50.8505 120.516 50.4072C119.566 49.9638 118.395 49.7422 117.001 49.7422C115.355 49.7422 114.025 50.1222 113.011 50.8822C112.061 51.6422 111.586 52.6238 111.586 53.8272C111.586 54.7772 111.84 55.5688 112.346 56.2022C112.916 56.8355 114.056 57.4688 115.766 58.1022C117.54 58.6722 120.136 59.2738 123.556 59.9072C129.7 60.9838 134.165 62.8838 136.951 65.6072C139.801 68.3305 141.226 71.5288 141.226 75.2022C141.226 79.8888 139.136 83.6572 134.956 86.5072C130.776 89.2938 124.95 90.6872 117.476 90.6872ZM173.026 90.6872C165.173 90.6872 159.124 88.8188 154.881 85.0822C150.638 81.3455 148.326 76.0888 147.946 69.3122C147.883 68.4888 147.851 67.0638 147.851 65.0372C147.851 63.0105 147.883 61.5855 147.946 60.7622C148.326 54.0488 150.701 48.8238 155.071 45.0872C159.441 41.2872 165.426 39.3872 173.026 39.3872C180.689 39.3872 186.706 41.2872 191.076 45.0872C195.446 48.8238 197.821 54.0488 198.201 60.7622C198.264 61.5855 198.296 63.0105 198.296 65.0372C198.296 67.0638 198.264 68.4888 198.201 69.3122C197.821 76.0888 195.509 81.3455 191.266 85.0822C187.023 88.8188 180.943 90.6872 173.026 90.6872ZM173.026 79.0972C175.813 79.0972 177.871 78.2738 179.201 76.6272C180.531 74.9172 181.291 72.3205 181.481 68.8372C181.544 68.2038 181.576 66.9372 181.576 65.0372C181.576 63.1372 181.544 61.8705 181.481 61.2372C181.291 57.8172 180.499 55.2522 179.106 53.5422C177.776 51.8322 175.749 50.9772 173.026 50.9772C167.769 50.9772 164.983 54.3972 164.666 61.2372L164.571 65.0372L164.666 68.8372C164.793 72.3205 165.521 74.9172 166.851 76.6272C168.244 78.2738 170.303 79.0972 173.026 79.0972ZM228.062 90.6872C222.932 90.6872 218.626 89.9588 215.142 88.5022C211.722 87.0455 209.189 85.3038 207.542 83.2772C205.896 81.2505 205.072 79.4455 205.072 77.8622C205.072 77.2288 205.294 76.7222 205.737 76.3422C206.244 75.8988 206.782 75.6772 207.352 75.6772H218.182C218.562 75.6772 218.911 75.8355 219.227 76.1522C219.987 76.6588 220.557 77.0705 220.937 77.3872C222.331 78.4005 223.534 79.1605 224.547 79.6672C225.624 80.1105 226.922 80.3322 228.442 80.3322C230.279 80.3322 231.767 79.9838 232.907 79.2872C234.111 78.5272 234.712 77.4822 234.712 76.1522C234.712 75.0755 234.396 74.2205 233.762 73.5872C233.192 72.9538 232.052 72.3522 230.342 71.7822C228.632 71.1488 226.036 70.4838 222.552 69.7872C217.296 68.7105 213.242 66.9688 210.392 64.5622C207.606 62.0922 206.212 58.7988 206.212 54.6822C206.212 52.0855 207.036 49.6155 208.682 47.2722C210.329 44.9288 212.767 43.0288 215.997 41.5722C219.291 40.1155 223.186 39.3872 227.682 39.3872C232.179 39.3872 236.106 40.0838 239.462 41.4772C242.819 42.8705 245.352 44.5805 247.062 46.6072C248.836 48.5705 249.722 50.3755 249.722 52.0222C249.722 52.5922 249.501 53.0988 249.057 53.5422C248.677 53.9855 248.202 54.2072 247.632 54.2072H237.752C237.246 54.2072 236.771 54.0488 236.327 53.7322C235.504 53.2888 234.776 52.8138 234.142 52.3072C233.066 51.4838 232.052 50.8505 231.102 50.4072C230.152 49.9638 228.981 49.7422 227.587 49.7422C225.941 49.7422 224.611 50.1222 223.597 50.8822C222.647 51.6422 222.172 52.6238 222.172 53.8272C222.172 54.7772 222.426 55.5688 222.932 56.2022C223.502 56.8355 224.642 57.4688 226.352 58.1022C228.126 58.6722 230.722 59.2738 234.142 59.9072C240.286 60.9838 244.751 62.8838 247.537 65.6072C250.387 68.3305 251.812 71.5288 251.812 75.2022C251.812 79.8888 249.722 83.6572 245.542 86.5072C241.362 89.2938 235.536 90.6872 228.062 90.6872ZM283.612 90.6872C275.759 90.6872 269.71 88.8188 265.467 85.0822C261.224 81.3455 258.912 76.0888 258.532 69.3122C258.469 68.4888 258.437 67.0638 258.437 65.0372C258.437 63.0105 258.469 61.5855 258.532 60.7622C258.912 54.0488 261.287 48.8238 265.657 45.0872C270.027 41.2872 276.012 39.3872 283.612 39.3872C291.275 39.3872 297.292 41.2872 301.662 45.0872C306.032 48.8238 308.407 54.0488 308.787 60.7622C308.85 61.5855 308.882 63.0105 308.882 65.0372C308.882 67.0638 308.85 68.4888 308.787 69.3122C308.407 76.0888 306.095 81.3455 301.852 85.0822C297.609 88.8188 291.529 90.6872 283.612 90.6872ZM283.612 79.0972C286.399 79.0972 288.457 78.2738 289.787 76.6272C291.117 74.9172 291.877 72.3205 292.067 68.8372C292.13 68.2038 292.162 66.9372 292.162 65.0372C292.162 63.1372 292.13 61.8705 292.067 61.2372C291.877 57.8172 291.085 55.2522 289.692 53.5422C288.362 51.8322 286.335 50.9772 283.612 50.9772C278.355 50.9772 275.569 54.3972 275.252 61.2372L275.157 65.0372L275.252 68.8372C275.379 72.3205 276.107 74.9172 277.437 76.6272C278.83 78.2738 280.889 79.0972 283.612 79.0972ZM320.693 89.7372C320.06 89.7372 319.49 89.5155 318.983 89.0722C318.54 88.5655 318.318 87.9955 318.318 87.3622V24.6622C318.318 23.9655 318.54 23.3955 318.983 22.9522C319.49 22.5088 320.06 22.2872 320.693 22.2872H331.903C332.6 22.2872 333.17 22.5088 333.613 22.9522C334.057 23.3955 334.278 23.9655 334.278 24.6622V87.3622C334.278 88.0588 334.057 88.6288 333.613 89.0722C333.17 89.5155 332.6 89.7372 331.903 89.7372H320.693Z" fill="#C600FF"/>
<path d="M9.77167 123.285L16.5891 139.598L23.4318 123.285H25.5139V141.769H23.9523V133.72L24.0793 125.468L17.1984 141.769H15.9924L9.1369 125.532L9.26385 133.67V141.769H7.70233V123.285H9.77167ZM43.8586 133.53C43.8586 135.231 43.5624 136.725 42.9699 138.011C42.3859 139.298 41.548 140.288 40.4562 140.982C39.3644 141.676 38.1034 142.023 36.673 142.023C34.5148 142.023 32.7713 141.253 31.4426 139.713C30.1138 138.164 29.4494 136.077 29.4494 133.454V131.549C29.4494 129.865 29.7456 128.376 30.3381 127.081C30.939 125.777 31.7853 124.779 32.8771 124.085C33.9689 123.382 35.2258 123.031 36.6476 123.031C38.0695 123.031 39.3221 123.374 40.4055 124.059C41.4973 124.745 42.3394 125.714 42.9318 126.966C43.5243 128.219 43.8332 129.671 43.8586 131.321V133.53ZM42.2971 131.524C42.2971 129.298 41.7935 127.555 40.7863 126.294C39.7792 125.033 38.3996 124.402 36.6476 124.402C34.9295 124.402 33.5585 125.037 32.5344 126.306C31.5187 127.567 31.0109 129.332 31.0109 131.6V133.53C31.0109 135.722 31.5187 137.461 32.5344 138.748C33.55 140.026 34.9295 140.665 36.673 140.665C38.4419 140.665 39.8215 140.034 40.8117 138.773C41.8019 137.504 42.2971 135.739 42.2971 133.479V131.524ZM61.5558 141.769H59.9943L49.3683 125.951V141.769H47.7941V123.285H49.3683L60.007 139.116V123.285H61.5558V141.769ZM76.4601 132.908H67.8146V140.449H77.7551V141.769H66.2531V123.285H77.6916V124.618H67.8146V131.588H76.4601V132.908ZM93.8527 124.618H87.5178V141.769H85.9562V124.618H79.634V123.285H93.8527V124.618ZM98.7531 141.769H97.1916V123.285H98.7531V141.769ZM104.479 140.449H115.892V141.769H102.587V140.589L113.556 124.618H102.917V123.285H115.486V124.402L104.479 140.449ZM129.552 132.908H120.906V140.449H130.847V141.769H119.345V123.285H130.783V124.618H120.906V131.588H129.552V132.908ZM134.148 141.769V123.285H139.315C140.83 123.285 142.188 123.632 143.39 124.326C144.592 125.011 145.527 125.997 146.195 127.284C146.873 128.57 147.211 130.035 147.211 131.676V133.378C147.211 135.028 146.877 136.492 146.208 137.77C145.54 139.048 144.596 140.034 143.377 140.728C142.167 141.422 140.775 141.769 139.2 141.769H134.148ZM135.709 124.618V140.449H139.213C141.16 140.449 142.721 139.806 143.898 138.519C145.074 137.224 145.662 135.477 145.662 133.276V131.651C145.662 129.527 145.083 127.826 143.923 126.548C142.764 125.27 141.236 124.626 139.34 124.618H135.709ZM149.395 140.855C149.395 140.559 149.488 140.309 149.674 140.106C149.869 139.895 150.135 139.789 150.474 139.789C150.812 139.789 151.079 139.895 151.274 140.106C151.468 140.309 151.566 140.559 151.566 140.855C151.566 141.151 151.468 141.397 151.274 141.591C151.079 141.778 150.812 141.871 150.474 141.871C150.135 141.871 149.869 141.778 149.674 141.591C149.488 141.397 149.395 141.151 149.395 140.855ZM162.433 141.769V123.285H167.6C169.115 123.285 170.473 123.632 171.675 124.326C172.877 125.011 173.812 125.997 174.481 127.284C175.158 128.57 175.496 130.035 175.496 131.676V133.378C175.496 135.028 175.162 136.492 174.493 137.77C173.825 139.048 172.881 140.034 171.662 140.728C170.452 141.422 169.06 141.769 167.486 141.769H162.433ZM163.994 124.618V140.449H167.498C169.445 140.449 171.006 139.806 172.183 138.519C173.359 137.224 173.947 135.477 173.947 133.276V131.651C173.947 129.527 173.368 127.826 172.208 126.548C171.049 125.27 169.521 124.626 167.625 124.618H163.994ZM189.677 132.908H181.031V140.449H190.972V141.769H179.47V123.285H190.908V124.618H181.031V131.588H189.677V132.908ZM207.362 136.006C207.15 137.952 206.452 139.442 205.267 140.474C204.09 141.507 202.52 142.023 200.557 142.023C199.186 142.023 197.971 141.68 196.913 140.995C195.864 140.309 195.051 139.34 194.476 138.088C193.9 136.827 193.608 135.388 193.6 133.771V131.372C193.6 129.73 193.888 128.274 194.463 127.005C195.039 125.735 195.864 124.758 196.939 124.072C198.022 123.378 199.266 123.031 200.671 123.031C202.652 123.031 204.213 123.568 205.356 124.643C206.507 125.71 207.175 127.187 207.362 129.074H205.787C205.398 125.934 203.693 124.364 200.671 124.364C198.995 124.364 197.658 124.99 196.659 126.243C195.669 127.495 195.174 129.226 195.174 131.435V133.695C195.174 135.828 195.656 137.529 196.621 138.799C197.595 140.068 198.906 140.703 200.557 140.703C202.19 140.703 203.422 140.313 204.251 139.535C205.081 138.748 205.593 137.571 205.787 136.006H207.362ZM221.364 132.908H212.719V140.449H222.659V141.769H211.157V123.285H222.596V124.618H212.719V131.588H221.364V132.908ZM239.722 141.769H238.16L227.534 125.951V141.769H225.96V123.285H227.534L238.173 139.116V123.285H239.722V141.769ZM256.581 124.618H250.246V141.769H248.685V124.618H242.362V123.285H256.581V124.618ZM266.484 134.076H261.113V141.769H259.539V123.285H265.544C267.516 123.285 269.056 123.763 270.165 124.719C271.274 125.676 271.828 127.013 271.828 128.731C271.828 129.916 271.481 130.961 270.787 131.867C270.093 132.772 269.162 133.399 267.994 133.746L272.615 141.604V141.769H270.952L266.484 134.076ZM261.113 132.743H265.9C267.211 132.743 268.265 132.37 269.061 131.626C269.856 130.881 270.254 129.916 270.254 128.731C270.254 127.428 269.839 126.416 269.01 125.697C268.181 124.978 267.017 124.618 265.519 124.618H261.113V132.743ZM286.06 136.59H277.668L275.764 141.769H274.126L281.121 123.285H282.607L289.602 141.769H287.977L286.06 136.59ZM278.151 135.257H285.565L281.858 125.189L278.151 135.257ZM293.905 140.449H303.033V141.769H292.331V123.285H293.905V140.449ZM307.946 141.769H306.385V123.285H307.946V141.769ZM313.672 140.449H325.085V141.769H311.78V140.589L322.749 124.618H312.111V123.285H324.679V124.402L313.672 140.449ZM338.745 132.908H330.1V140.449H340.04V141.769H328.538V123.285H339.977V124.618H330.1V131.588H338.745V132.908ZM343.341 141.769V123.285H348.508C350.023 123.285 351.381 123.632 352.583 124.326C353.785 125.011 354.72 125.997 355.389 127.284C356.066 128.57 356.404 130.035 356.404 131.676V133.378C356.404 135.028 356.07 136.492 355.402 137.77C354.733 139.048 353.789 140.034 352.57 140.728C351.36 141.422 349.968 141.769 348.394 141.769H343.341ZM344.903 124.618V140.449H348.406C350.353 140.449 351.915 139.806 353.091 138.519C354.267 137.224 354.856 135.477 354.856 133.276V131.651C354.856 129.527 354.276 127.826 353.116 126.548C351.957 125.27 350.429 124.626 348.533 124.618H344.903ZM358.588 140.855C358.588 140.559 358.681 140.309 358.867 140.106C359.062 139.895 359.329 139.789 359.667 139.789C360.006 139.789 360.272 139.895 360.467 140.106C360.662 140.309 360.759 140.559 360.759 140.855C360.759 141.151 360.662 141.397 360.467 141.591C360.272 141.778 360.006 141.871 359.667 141.871C359.329 141.871 359.062 141.778 358.867 141.591C358.681 141.397 358.588 141.151 358.588 140.855ZM382.087 137.224C382.087 136.2 381.727 135.392 381.008 134.799C380.289 134.199 378.973 133.632 377.06 133.098C375.147 132.557 373.751 131.968 372.87 131.334C371.618 130.437 370.991 129.26 370.991 127.804C370.991 126.391 371.571 125.244 372.731 124.364C373.899 123.475 375.388 123.031 377.199 123.031C378.427 123.031 379.523 123.268 380.487 123.742C381.461 124.216 382.214 124.876 382.747 125.722C383.28 126.569 383.547 127.512 383.547 128.553H381.973C381.973 127.292 381.541 126.281 380.678 125.519C379.815 124.749 378.655 124.364 377.199 124.364C375.786 124.364 374.66 124.681 373.822 125.316C372.985 125.942 372.566 126.763 372.566 127.779C372.566 128.718 372.942 129.484 373.695 130.077C374.449 130.669 375.655 131.194 377.314 131.651C378.973 132.1 380.229 132.569 381.084 133.06C381.939 133.543 382.582 134.122 383.014 134.799C383.445 135.477 383.661 136.276 383.661 137.199C383.661 138.655 383.077 139.823 381.909 140.703C380.75 141.583 379.218 142.023 377.314 142.023C376.01 142.023 374.813 141.79 373.721 141.325C372.638 140.859 371.812 140.208 371.245 139.37C370.687 138.532 370.407 137.571 370.407 136.488H371.969C371.969 137.791 372.456 138.82 373.429 139.573C374.402 140.326 375.697 140.703 377.314 140.703C378.752 140.703 379.908 140.385 380.779 139.751C381.651 139.116 382.087 138.274 382.087 137.224ZM400.698 133.53C400.698 135.231 400.402 136.725 399.81 138.011C399.226 139.298 398.388 140.288 397.296 140.982C396.204 141.676 394.943 142.023 393.513 142.023C391.355 142.023 389.611 141.253 388.282 139.713C386.954 138.164 386.289 136.077 386.289 133.454V131.549C386.289 129.865 386.585 128.376 387.178 127.081C387.779 125.777 388.625 124.779 389.717 124.085C390.809 123.382 392.066 123.031 393.487 123.031C394.909 123.031 396.162 123.374 397.245 124.059C398.337 124.745 399.179 125.714 399.772 126.966C400.364 128.219 400.673 129.671 400.698 131.321V133.53ZM399.137 131.524C399.137 129.298 398.633 127.555 397.626 126.294C396.619 125.033 395.239 124.402 393.487 124.402C391.769 124.402 390.398 125.037 389.374 126.306C388.359 127.567 387.851 129.332 387.851 131.6V133.53C387.851 135.722 388.359 137.461 389.374 138.748C390.39 140.026 391.769 140.665 393.513 140.665C395.282 140.665 396.661 140.034 397.652 138.773C398.642 137.504 399.137 135.739 399.137 133.479V131.524ZM417.723 136.006C417.511 137.952 416.813 139.442 415.628 140.474C414.452 141.507 412.882 142.023 410.918 142.023C409.547 142.023 408.333 141.68 407.275 140.995C406.225 140.309 405.413 139.34 404.837 138.088C404.262 136.827 403.97 135.388 403.961 133.771V131.372C403.961 129.73 404.249 128.274 404.824 127.005C405.4 125.735 406.225 124.758 407.3 124.072C408.383 123.378 409.627 123.031 411.032 123.031C413.013 123.031 414.574 123.568 415.717 124.643C416.868 125.71 417.537 127.187 417.723 129.074H416.149C415.759 125.934 414.054 124.364 411.032 124.364C409.357 124.364 408.019 124.99 407.021 126.243C406.03 127.495 405.535 129.226 405.535 131.435V133.695C405.535 135.828 406.018 137.529 406.983 138.799C407.956 140.068 409.268 140.703 410.918 140.703C412.552 140.703 413.783 140.313 414.612 139.535C415.442 138.748 415.954 137.571 416.149 136.006H417.723ZM423.423 141.769H421.862V123.285H423.423V141.769ZM438.657 136.59H430.266L428.362 141.769H426.724L433.719 123.285H435.204L442.199 141.769H440.574L438.657 136.59ZM430.748 135.257H438.162L434.455 125.189L430.748 135.257ZM446.503 140.449H455.631V141.769H444.929V123.285H446.503V140.449ZM458.145 140.855C458.145 140.559 458.238 140.309 458.424 140.106C458.619 139.895 458.885 139.789 459.224 139.789C459.562 139.789 459.829 139.895 460.024 140.106C460.218 140.309 460.316 140.559 460.316 140.855C460.316 141.151 460.218 141.397 460.024 141.591C459.829 141.778 459.562 141.871 459.224 141.871C458.885 141.871 458.619 141.778 458.424 141.591C458.238 141.397 458.145 141.151 458.145 140.855Z" fill="#8AA4FF"/>
</svg>
