<svg width="509" height="183" viewBox="0 0 509 183" fill="none" xmlns="http://www.w3.org/2000/svg">
<rect x="0.0464478" y="0.929855" width="508.453" height="181.142" fill="#29125E"/>
<circle cx="60.3424" cy="63.167" r="39.6076" fill="#7E00A3"/>
<circle cx="60.3424" cy="63.167" r="37.2374" fill="#6184FF"/>
<circle cx="60.3424" cy="63.167" r="34.9295" fill="#29125E"/>
<path d="M60.04 35.2478L44.5581 45.6299L44.5581 58.0154L53.1187 63.8439L45.4688 69.4903V80.6009L60.7686 90.9829L75.3399 81.1473L74.9756 68.3974L67.69 63.1154L74.4292 57.8333L74.7935 45.9941L60.04 35.2478Z" fill="#C600FF"/>
<mask id="path-6-outside-1" maskUnits="userSpaceOnUse" x="42.1857" y="32.3503" width="37" height="62" fill="black">
<rect fill="white" x="42.1857" y="32.3503" width="37" height="62"/>
<path fill-rule="evenodd" clip-rule="evenodd" d="M59.9435 37.1979L47.1806 45.9141L47.1806 57.2754L62.7638 67.9177L62.7422 67.9324H62.8312L62.8312 80.7281H58.8428L58.8428 69.092L53.847 65.6802L47.9783 69.6881L47.9783 80.4199L60.7412 89.1362L73.5041 80.4199V69.0414L57.9276 58.4036L57.9493 58.3888L57.9493 45.8909H61.9377L61.9377 57.2902L67.3226 60.9678L72.7064 57.2909V45.9141L59.9435 37.1979ZM60.7412 92.9793L60.7478 92.9838L77.4875 81.5515H77.4925V81.5482L77.4991 81.5437L77.4925 81.5392V67.9324H77.4775L77.4991 67.9177L70.1428 62.8938L76.7014 58.4147L76.6852 58.4037H76.6948V44.7949L76.7014 44.7904L76.6948 44.7859V44.7845H76.6928L59.9501 33.3503L59.9435 33.3548L59.937 33.3503L43.1942 44.7845H43.1922V44.7859L43.1857 44.7904L43.1922 44.7948L43.1922 58.4037H43.1923L51.0268 63.7541L43.99 68.5598H43.9899L43.9899 81.5392L43.9833 81.5437L43.9899 81.5482V81.5515H43.9948L60.7346 92.9838L60.7412 92.9793Z"/>
</mask>
<path fill-rule="evenodd" clip-rule="evenodd" d="M59.9435 37.1979L47.1806 45.9141L47.1806 57.2754L62.7638 67.9177L62.7422 67.9324H62.8312L62.8312 80.7281H58.8428L58.8428 69.092L53.847 65.6802L47.9783 69.6881L47.9783 80.4199L60.7412 89.1362L73.5041 80.4199V69.0414L57.9276 58.4036L57.9493 58.3888L57.9493 45.8909H61.9377L61.9377 57.2902L67.3226 60.9678L72.7064 57.2909V45.9141L59.9435 37.1979ZM60.7412 92.9793L60.7478 92.9838L77.4875 81.5515H77.4925V81.5482L77.4991 81.5437L77.4925 81.5392V67.9324H77.4775L77.4991 67.9177L70.1428 62.8938L76.7014 58.4147L76.6852 58.4037H76.6948V44.7949L76.7014 44.7904L76.6948 44.7859V44.7845H76.6928L59.9501 33.3503L59.9435 33.3548L59.937 33.3503L43.1942 44.7845H43.1922V44.7859L43.1857 44.7904L43.1922 44.7948L43.1922 58.4037H43.1923L51.0268 63.7541L43.99 68.5598H43.9899L43.9899 81.5392L43.9833 81.5437L43.9899 81.5482V81.5515H43.9948L60.7346 92.9838L60.7412 92.9793Z" fill="#450059"/>
<path d="M47.1806 45.9141L46.6167 45.0884C46.3438 45.2747 46.1806 45.5838 46.1806 45.9141H47.1806ZM59.9435 37.1979L60.5075 36.3721C60.1674 36.1398 59.7197 36.1398 59.3796 36.3721L59.9435 37.1979ZM47.1806 57.2754H46.1806C46.1806 57.6058 46.3438 57.9148 46.6167 58.1012L47.1806 57.2754ZM62.7638 67.9177L63.3277 68.7435C63.6006 68.5571 63.7638 68.2481 63.7638 67.9177C63.7638 67.5873 63.6006 67.2782 63.3277 67.0919L62.7638 67.9177ZM62.7422 67.9324L62.1782 67.1066C61.816 67.354 61.6573 67.8085 61.7868 68.2275C61.9162 68.6466 62.3036 68.9324 62.7422 68.9324V67.9324ZM62.8312 67.9324H63.8312C63.8312 67.6672 63.7258 67.4128 63.5383 67.2253C63.3507 67.0378 63.0964 66.9324 62.8312 66.9324V67.9324ZM62.8312 80.7281V81.7281C63.3835 81.7281 63.8312 81.2804 63.8312 80.7281H62.8312ZM58.8428 80.7281H57.8428C57.8428 80.9933 57.9481 81.2477 58.1357 81.4352C58.3232 81.6228 58.5776 81.7281 58.8428 81.7281V80.7281ZM58.8428 69.092H59.8428C59.8428 68.7616 59.6796 68.4525 59.4067 68.2662L58.8428 69.092ZM53.847 65.6802L54.411 64.8544C54.0709 64.6221 53.6231 64.6221 53.283 64.8544L53.847 65.6802ZM47.9783 69.6881L47.4143 68.8623C47.1415 69.0487 46.9783 69.3577 46.9783 69.6881H47.9783ZM47.9783 80.4199H46.9783C46.9783 80.7503 47.1415 81.0594 47.4143 81.2457L47.9783 80.4199ZM60.7412 89.1362L60.1772 89.962C60.5173 90.1942 60.9651 90.1942 61.3052 89.962L60.7412 89.1362ZM73.5041 80.4199L74.068 81.2457C74.3409 81.0594 74.5041 80.7503 74.5041 80.4199H73.5041ZM73.5041 69.0414H74.5041C74.5041 68.711 74.3409 68.402 74.068 68.2156L73.5041 69.0414ZM57.9276 58.4036L57.3636 57.5778C57.0907 57.7642 56.9276 58.0732 56.9276 58.4036C56.9276 58.734 57.0907 59.0431 57.3636 59.2294L57.9276 58.4036ZM57.9493 58.3888L58.5133 59.2146C58.7861 59.0282 58.9493 58.7192 58.9493 58.3888H57.9493ZM57.9493 45.8909V44.8909C57.6841 44.8909 57.4297 44.9963 57.2422 45.1838C57.0547 45.3714 56.9493 45.6257 56.9493 45.8909H57.9493ZM61.9377 45.8909H62.9377C62.9377 45.3386 62.49 44.8909 61.9377 44.8909V45.8909ZM61.9377 57.2902H60.9377C60.9377 57.6206 61.1009 57.9297 61.3737 58.116L61.9377 57.2902ZM67.3226 60.9678L66.7586 61.7936C67.0987 62.0258 67.5464 62.0258 67.8865 61.7936L67.3226 60.9678ZM72.7064 57.2909L73.2704 58.1167C73.5432 57.9304 73.7064 57.6213 73.7064 57.2909H72.7064ZM72.7064 45.9141H73.7064C73.7064 45.5837 73.5432 45.2747 73.2704 45.0883L72.7064 45.9141ZM60.7412 92.9793L61.3052 92.1535C60.9651 91.9212 60.5174 91.9212 60.1773 92.1535L60.7412 92.9793ZM60.7478 92.9838L60.1837 93.8095C60.5238 94.0418 60.9716 94.0419 61.3117 93.8096L60.7478 92.9838ZM77.4875 81.5515V80.5515C77.2863 80.5515 77.0898 80.6123 76.9236 80.7257L77.4875 81.5515ZM77.4925 81.5515V82.5515C78.0448 82.5515 78.4925 82.1038 78.4925 81.5515H77.4925ZM77.4925 81.5482L76.9285 80.7224C76.6557 80.9087 76.4925 81.2178 76.4925 81.5482H77.4925ZM77.4991 81.5437L78.063 82.3695C78.3359 82.1832 78.4991 81.8741 78.4991 81.5437C78.4991 81.2133 78.3359 80.9042 78.063 80.7179L77.4991 81.5437ZM77.4925 81.5392H76.4925C76.4925 81.8696 76.6557 82.1787 76.9285 82.365L77.4925 81.5392ZM77.4925 67.9324H78.4925C78.4925 67.3801 78.0448 66.9324 77.4925 66.9324V67.9324ZM77.4775 67.9324L76.9136 67.1066C76.5514 67.3539 76.3926 67.8084 76.5221 68.2275C76.6515 68.6466 77.0389 68.9324 77.4775 68.9324V67.9324ZM77.4991 67.9177L78.063 68.7435C78.3359 68.5572 78.4991 68.2481 78.4991 67.9177C78.4991 67.5873 78.3359 67.2782 78.063 67.0919L77.4991 67.9177ZM70.1428 62.8938L69.5788 62.068C69.306 62.2543 69.1428 62.5634 69.1428 62.8938C69.1428 63.2242 69.306 63.5333 69.5788 63.7196L70.1428 62.8938ZM76.7014 58.4147L77.2653 59.2405C77.5382 59.0542 77.7014 58.7451 77.7014 58.4147C77.7014 58.0843 77.5382 57.7753 77.2654 57.5889L76.7014 58.4147ZM76.6852 58.4037V57.4037C76.2466 57.4037 75.8592 57.6895 75.7298 58.1085C75.6003 58.5276 75.7591 58.9821 76.1212 59.2295L76.6852 58.4037ZM76.6948 58.4037V59.4037C77.2471 59.4037 77.6948 58.956 77.6948 58.4037H76.6948ZM76.6948 44.7949L76.1308 43.9691C75.858 44.1554 75.6948 44.4645 75.6948 44.7949H76.6948ZM76.7014 44.7904L77.2653 45.6162C77.5382 45.4299 77.7014 45.1208 77.7014 44.7904C77.7014 44.46 77.5382 44.1509 77.2653 43.9646L76.7014 44.7904ZM76.6948 44.7859H75.6948C75.6948 45.1163 75.858 45.4254 76.1308 45.6117L76.6948 44.7859ZM76.6948 44.7845H77.6948C77.6948 44.2322 77.2471 43.7845 76.6948 43.7845V44.7845ZM76.6928 44.7845L76.1288 45.6103C76.295 45.7238 76.4916 45.7845 76.6928 45.7845V44.7845ZM59.9501 33.3503L60.5141 32.5245C60.174 32.2922 59.7263 32.2922 59.3862 32.5244L59.9501 33.3503ZM59.9435 33.3548L59.3795 34.1805C59.7196 34.4128 60.1673 34.4129 60.5074 34.1806L59.9435 33.3548ZM59.937 33.3503L60.501 32.5245C60.1609 32.2922 59.7131 32.2922 59.373 32.5245L59.937 33.3503ZM43.1942 44.7845V45.7845C43.3955 45.7845 43.592 45.7238 43.7582 45.6103L43.1942 44.7845ZM43.1922 44.7845V43.7845C42.6399 43.7845 42.1922 44.2322 42.1922 44.7845H43.1922ZM43.1922 44.7859L43.7562 45.6117C44.029 45.4254 44.1922 45.1163 44.1922 44.7859H43.1922ZM43.1857 44.7904L42.6217 43.9646C42.3489 44.1509 42.1857 44.46 42.1857 44.7904C42.1857 45.1208 42.3489 45.4298 42.6217 45.6162L43.1857 44.7904ZM43.1922 44.7948H44.1922C44.1922 44.4644 44.029 44.1554 43.7562 43.969L43.1922 44.7948ZM43.1922 58.4037H42.1922C42.1922 58.956 42.6399 59.4037 43.1922 59.4037V58.4037ZM43.1923 58.4037L43.7563 57.5779C43.5901 57.4644 43.3936 57.4037 43.1923 57.4037V58.4037ZM51.0268 63.7541L51.5907 64.5799C51.8636 64.3936 52.0268 64.0845 52.0268 63.7541C52.0268 63.4237 51.8636 63.1147 51.5907 62.9283L51.0268 63.7541ZM43.99 68.5598V69.5598C44.1912 69.5598 44.3878 69.4991 44.554 69.3856L43.99 68.5598ZM43.9899 68.5598V67.5598C43.4376 67.5598 42.9899 68.0075 42.9899 68.5598H43.9899ZM43.9899 81.5392L44.5538 82.365C44.8267 82.1787 44.9899 81.8696 44.9899 81.5392H43.9899ZM43.9833 81.5437L43.4194 80.7178C43.1465 80.9042 42.9833 81.2133 42.9833 81.5437C42.9833 81.8741 43.1465 82.1832 43.4194 82.3695L43.9833 81.5437ZM43.9899 81.5482H44.9899C44.9899 81.2178 44.8267 80.9087 44.5538 80.7223L43.9899 81.5482ZM43.9899 81.5515H42.9899C42.9899 82.1038 43.4376 82.5515 43.9899 82.5515V81.5515ZM43.9948 81.5515L44.5588 80.7257C44.3926 80.6123 44.1961 80.5515 43.9948 80.5515V81.5515ZM60.7346 92.9838L60.1706 93.8096C60.5107 94.0418 60.9584 94.0418 61.2985 93.8096L60.7346 92.9838ZM47.7446 46.7399L60.5075 38.0237L59.3796 36.3721L46.6167 45.0884L47.7446 46.7399ZM48.1806 57.2754L48.1806 45.9141H46.1806L46.1806 57.2754H48.1806ZM63.3277 67.0919L47.7446 56.4496L46.6167 58.1012L62.1998 68.7435L63.3277 67.0919ZM63.3062 68.7582L63.3277 68.7435L62.1998 67.0919L62.1782 67.1066L63.3062 68.7582ZM62.8312 66.9324H62.7422V68.9324H62.8312V66.9324ZM63.8312 80.7281L63.8312 67.9324H61.8312L61.8312 80.7281H63.8312ZM58.8428 81.7281H62.8312V79.7281H58.8428V81.7281ZM57.8428 69.092L57.8428 80.7281H59.8428L59.8428 69.092H57.8428ZM53.283 66.506L58.2788 69.9178L59.4067 68.2662L54.411 64.8544L53.283 66.506ZM48.5423 70.5139L54.411 66.506L53.283 64.8544L47.4143 68.8623L48.5423 70.5139ZM48.9783 80.4199L48.9783 69.6881H46.9783L46.9783 80.4199H48.9783ZM47.4143 81.2457L60.1772 89.962L61.3052 88.3104L48.5423 79.5941L47.4143 81.2457ZM72.9401 79.5941L60.1772 88.3104L61.3052 89.962L74.068 81.2457L72.9401 79.5941ZM72.5041 69.0414V80.4199H74.5041V69.0414H72.5041ZM57.3636 59.2294L72.9401 69.8672L74.068 68.2156L58.4915 57.5778L57.3636 59.2294ZM57.3853 57.563L57.3636 57.5778L58.4915 59.2294L58.5133 59.2146L57.3853 57.563ZM56.9493 45.8909L56.9493 58.3888H58.9493L58.9493 45.8909H56.9493ZM61.9377 44.8909H57.9493V46.8909H61.9377V44.8909ZM62.9377 57.2902L62.9377 45.8909H60.9377L60.9377 57.2902H62.9377ZM67.8865 60.142L62.5017 56.4645L61.3737 58.116L66.7586 61.7936L67.8865 60.142ZM72.1424 56.4651L66.7586 60.142L67.8865 61.7936L73.2704 58.1167L72.1424 56.4651ZM71.7064 45.9141V57.2909H73.7064V45.9141H71.7064ZM59.3796 38.0237L72.1424 46.7399L73.2704 45.0883L60.5075 36.3721L59.3796 38.0237ZM60.1771 93.805L60.1837 93.8095L61.3118 92.158L61.3052 92.1535L60.1771 93.805ZM61.3117 93.8096L78.0515 82.3773L76.9236 80.7257L60.1838 92.158L61.3117 93.8096ZM77.4875 82.5515H77.4925V80.5515H77.4875V82.5515ZM78.4925 81.5515V81.5482H76.4925V81.5515H78.4925ZM78.0564 82.374L78.063 82.3695L76.9351 80.7179L76.9285 80.7224L78.0564 82.374ZM78.063 80.7179L78.0564 80.7134L76.9285 82.365L76.9351 82.3695L78.063 80.7179ZM78.4925 81.5392V67.9324H76.4925V81.5392H78.4925ZM77.4925 66.9324H77.4775V68.9324H77.4925V66.9324ZM78.0415 68.7582L78.063 68.7435L76.9351 67.0919L76.9136 67.1066L78.0415 68.7582ZM78.063 67.0919L70.7067 62.068L69.5788 63.7196L76.9351 68.7435L78.063 67.0919ZM70.7067 63.7196L77.2653 59.2405L76.1374 57.5889L69.5788 62.068L70.7067 63.7196ZM77.2654 57.5889L77.2492 57.5779L76.1212 59.2295L76.1374 59.2405L77.2654 57.5889ZM76.6852 59.4037H76.6948V57.4037H76.6852V59.4037ZM77.6948 58.4037V44.7949H75.6948V58.4037H77.6948ZM77.2587 45.6207L77.2653 45.6162L76.1374 43.9646L76.1308 43.9691L77.2587 45.6207ZM77.2653 43.9646L77.2587 43.9601L76.1308 45.6117L76.1374 45.6162L77.2653 43.9646ZM77.6948 44.7859V44.7845H75.6948V44.7859H77.6948ZM76.6948 43.7845H76.6928V45.7845H76.6948V43.7845ZM77.2568 43.9587L60.5141 32.5245L59.3861 34.1761L76.1288 45.6103L77.2568 43.9587ZM59.3862 32.5244L59.3796 32.5289L60.5074 34.1806L60.514 34.1761L59.3862 32.5244ZM60.5075 32.529L60.501 32.5245L59.3729 34.176L59.3795 34.1805L60.5075 32.529ZM59.373 32.5245L42.6303 43.9587L43.7582 45.6103L60.5009 34.1761L59.373 32.5245ZM43.1942 43.7845H43.1922V45.7845H43.1942V43.7845ZM42.1922 44.7845V44.7859H44.1922V44.7845H42.1922ZM42.6283 43.9601L42.6217 43.9646L43.7496 45.6162L43.7562 45.6117L42.6283 43.9601ZM42.6217 45.6162L42.6283 45.6207L43.7562 43.969L43.7496 43.9646L42.6217 45.6162ZM42.1922 44.7948L42.1922 58.4037H44.1922L44.1922 44.7948H42.1922ZM43.1922 59.4037H43.1923V57.4037H43.1922V59.4037ZM42.6283 59.2295L50.4628 64.5799L51.5907 62.9283L43.7563 57.5779L42.6283 59.2295ZM50.4628 62.9283L43.426 67.734L44.554 69.3856L51.5907 64.5799L50.4628 62.9283ZM43.99 67.5598H43.9899V69.5598H43.99V67.5598ZM42.9899 68.5598L42.9899 81.5392H44.9899L44.9899 68.5598H42.9899ZM44.5472 82.3695L44.5538 82.365L43.426 80.7133L43.4194 80.7178L44.5472 82.3695ZM44.5538 80.7223L44.5472 80.7178L43.4194 82.3695L43.426 82.374L44.5538 80.7223ZM42.9899 81.5482V81.5515H44.9899V81.5482H42.9899ZM43.9899 82.5515H43.9948V80.5515H43.9899V82.5515ZM61.2986 92.158L44.5588 80.7257L43.4309 82.3773L60.1706 93.8096L61.2986 92.158ZM60.1773 92.1535L60.1707 92.1579L61.2985 93.8096L61.3051 93.8051L60.1773 92.1535Z" fill="#C600FF" mask="url(#path-6-outside-1)"/>
<path d="M137.523 96.617C132.393 96.617 128.086 95.8887 124.603 94.432C121.183 92.9754 118.649 91.2337 117.003 89.207C115.356 87.1804 114.533 85.3754 114.533 83.792C114.533 83.1587 114.754 82.652 115.198 82.272C115.704 81.8287 116.243 81.607 116.813 81.607H127.643C128.023 81.607 128.371 81.7654 128.688 82.082C129.448 82.5887 130.018 83.0004 130.398 83.317C131.791 84.3304 132.994 85.0904 134.008 85.597C135.084 86.0404 136.383 86.262 137.903 86.262C139.739 86.262 141.228 85.9137 142.368 85.217C143.571 84.457 144.173 83.412 144.173 82.082C144.173 81.0054 143.856 80.1504 143.223 79.517C142.653 78.8837 141.513 78.282 139.803 77.712C138.093 77.0787 135.496 76.4137 132.013 75.717C126.756 74.6404 122.703 72.8987 119.853 70.492C117.066 68.022 115.673 64.7287 115.673 60.612C115.673 58.0154 116.496 55.5454 118.143 53.202C119.789 50.8587 122.228 48.9587 125.458 47.502C128.751 46.0454 132.646 45.317 137.143 45.317C141.639 45.317 145.566 46.0137 148.923 47.407C152.279 48.8004 154.813 50.5104 156.523 52.537C158.296 54.5004 159.183 56.3054 159.183 57.952C159.183 58.522 158.961 59.0287 158.518 59.472C158.138 59.9154 157.663 60.137 157.093 60.137H147.213C146.706 60.137 146.231 59.9787 145.788 59.662C144.964 59.2187 144.236 58.7437 143.603 58.237C142.526 57.4137 141.513 56.7804 140.563 56.337C139.613 55.8937 138.441 55.672 137.048 55.672C135.401 55.672 134.071 56.052 133.058 56.812C132.108 57.572 131.633 58.5537 131.633 59.757C131.633 60.707 131.886 61.4987 132.393 62.132C132.963 62.7654 134.103 63.3987 135.813 64.032C137.586 64.602 140.183 65.2037 143.603 65.837C149.746 66.9137 154.211 68.8137 156.998 71.537C159.848 74.2604 161.273 77.4587 161.273 81.132C161.273 85.8187 159.183 89.587 155.003 92.437C150.823 95.2237 144.996 96.617 137.523 96.617ZM193.073 96.617C185.219 96.617 179.171 94.7487 174.928 91.012C170.684 87.2754 168.373 82.0187 167.993 75.242C167.929 74.4187 167.898 72.9937 167.898 70.967C167.898 68.9404 167.929 67.5154 167.993 66.692C168.373 59.9787 170.748 54.7537 175.118 51.017C179.488 47.217 185.473 45.317 193.073 45.317C200.736 45.317 206.753 47.217 211.123 51.017C215.493 54.7537 217.868 59.9787 218.248 66.692C218.311 67.5154 218.343 68.9404 218.343 70.967C218.343 72.9937 218.311 74.4187 218.248 75.242C217.868 82.0187 215.556 87.2754 211.313 91.012C207.069 94.7487 200.989 96.617 193.073 96.617ZM193.073 85.027C195.859 85.027 197.918 84.2037 199.248 82.557C200.578 80.847 201.338 78.2504 201.528 74.767C201.591 74.1337 201.623 72.867 201.623 70.967C201.623 69.067 201.591 67.8004 201.528 67.167C201.338 63.747 200.546 61.182 199.153 59.472C197.823 57.762 195.796 56.907 193.073 56.907C187.816 56.907 185.029 60.327 184.713 67.167L184.618 70.967L184.713 74.767C184.839 78.2504 185.568 80.847 186.898 82.557C188.291 84.2037 190.349 85.027 193.073 85.027ZM248.109 96.617C242.979 96.617 238.672 95.8887 235.189 94.432C231.769 92.9754 229.235 91.2337 227.589 89.207C225.942 87.1804 225.119 85.3754 225.119 83.792C225.119 83.1587 225.34 82.652 225.784 82.272C226.29 81.8287 226.829 81.607 227.399 81.607H238.229C238.609 81.607 238.957 81.7654 239.274 82.082C240.034 82.5887 240.604 83.0004 240.984 83.317C242.377 84.3304 243.58 85.0904 244.594 85.597C245.67 86.0404 246.969 86.262 248.489 86.262C250.325 86.262 251.814 85.9137 252.954 85.217C254.157 84.457 254.759 83.412 254.759 82.082C254.759 81.0054 254.442 80.1504 253.809 79.517C253.239 78.8837 252.099 78.282 250.389 77.712C248.679 77.0787 246.082 76.4137 242.599 75.717C237.342 74.6404 233.289 72.8987 230.439 70.492C227.652 68.022 226.259 64.7287 226.259 60.612C226.259 58.0154 227.082 55.5454 228.729 53.202C230.375 50.8587 232.814 48.9587 236.044 47.502C239.337 46.0454 243.232 45.317 247.729 45.317C252.225 45.317 256.152 46.0137 259.509 47.407C262.865 48.8004 265.399 50.5104 267.109 52.537C268.882 54.5004 269.769 56.3054 269.769 57.952C269.769 58.522 269.547 59.0287 269.104 59.472C268.724 59.9154 268.249 60.137 267.679 60.137H257.799C257.292 60.137 256.817 59.9787 256.374 59.662C255.55 59.2187 254.822 58.7437 254.189 58.237C253.112 57.4137 252.099 56.7804 251.149 56.337C250.199 55.8937 249.027 55.672 247.634 55.672C245.987 55.672 244.657 56.052 243.644 56.812C242.694 57.572 242.219 58.5537 242.219 59.757C242.219 60.707 242.472 61.4987 242.979 62.132C243.549 62.7654 244.689 63.3987 246.399 64.032C248.172 64.602 250.769 65.2037 254.189 65.837C260.332 66.9137 264.797 68.8137 267.584 71.537C270.434 74.2604 271.859 77.4587 271.859 81.132C271.859 85.8187 269.769 89.587 265.589 92.437C261.409 95.2237 255.582 96.617 248.109 96.617ZM303.658 96.617C295.805 96.617 289.757 94.7487 285.513 91.012C281.27 87.2754 278.958 82.0187 278.578 75.242C278.515 74.4187 278.483 72.9937 278.483 70.967C278.483 68.9404 278.515 67.5154 278.578 66.692C278.958 59.9787 281.333 54.7537 285.703 51.017C290.073 47.217 296.058 45.317 303.658 45.317C311.322 45.317 317.338 47.217 321.708 51.017C326.078 54.7537 328.453 59.9787 328.833 66.692C328.897 67.5154 328.928 68.9404 328.928 70.967C328.928 72.9937 328.897 74.4187 328.833 75.242C328.453 82.0187 326.142 87.2754 321.898 91.012C317.655 94.7487 311.575 96.617 303.658 96.617ZM303.658 85.027C306.445 85.027 308.503 84.2037 309.833 82.557C311.163 80.847 311.923 78.2504 312.113 74.767C312.177 74.1337 312.208 72.867 312.208 70.967C312.208 69.067 312.177 67.8004 312.113 67.167C311.923 63.747 311.132 61.182 309.738 59.472C308.408 57.762 306.382 56.907 303.658 56.907C298.402 56.907 295.615 60.327 295.298 67.167L295.203 70.967L295.298 74.767C295.425 78.2504 296.153 80.847 297.483 82.557C298.877 84.2037 300.935 85.027 303.658 85.027ZM340.74 95.667C340.106 95.667 339.536 95.4454 339.03 95.002C338.586 94.4954 338.365 93.9254 338.365 93.292V30.592C338.365 29.8954 338.586 29.3254 339.03 28.882C339.536 28.4387 340.106 28.217 340.74 28.217H351.95C352.646 28.217 353.216 28.4387 353.66 28.882C354.103 29.3254 354.325 29.8954 354.325 30.592V93.292C354.325 93.9887 354.103 94.5587 353.66 95.002C353.216 95.4454 352.646 95.667 351.95 95.667H340.74Z" fill="#C600FF"/>
<path d="M29.8181 129.215L36.6355 145.528L43.4783 129.215H45.5603V147.699H43.9988V139.65L44.1257 131.398L37.2449 147.699H36.0388L29.1833 131.462L29.3103 139.599V147.699H27.7488V129.215H29.8181ZM63.905 139.46C63.905 141.161 63.6088 142.655 63.0164 143.941C62.4324 145.228 61.5945 146.218 60.5027 146.912C59.4109 147.606 58.1498 147.953 56.7195 147.953C54.5613 147.953 52.8178 147.183 51.489 145.642C50.1602 144.094 49.4958 142.007 49.4958 139.384V137.479C49.4958 135.795 49.7921 134.306 50.3845 133.011C50.9854 131.707 51.8318 130.709 52.9236 130.015C54.0154 129.312 55.2722 128.961 56.6941 128.961C58.116 128.961 59.3686 129.304 60.4519 129.989C61.5437 130.675 62.3858 131.644 62.9783 132.896C63.5707 134.149 63.8796 135.6 63.905 137.251V139.46ZM62.3435 137.454C62.3435 135.228 61.8399 133.485 60.8328 132.224C59.8256 130.962 58.446 130.332 56.6941 130.332C54.976 130.332 53.6049 130.967 52.5808 132.236C51.5652 133.497 51.0574 135.262 51.0574 137.53V139.46C51.0574 141.652 51.5652 143.391 52.5808 144.678C53.5964 145.956 54.976 146.595 56.7195 146.595C58.4884 146.595 59.8679 145.964 60.8582 144.703C61.8484 143.433 62.3435 141.669 62.3435 139.409V137.454ZM81.6023 147.699H80.0408L69.4148 131.881V147.699H67.8406V129.215H69.4148L80.0535 145.046V129.215H81.6023V147.699ZM96.5066 138.838H87.8611V146.379H97.8015V147.699H86.2996V129.215H97.738V130.548H87.8611V137.517H96.5066V138.838ZM113.899 130.548H107.564V147.699H106.003V130.548H99.6804V129.215H113.899V130.548ZM118.8 147.699H117.238V129.215H118.8V147.699ZM124.525 146.379H135.938V147.699H122.634V146.518L133.602 130.548H122.964V129.215H135.532V130.332L124.525 146.379ZM149.598 138.838H140.953V146.379H150.893V147.699H139.391V129.215H150.83V130.548H140.953V137.517H149.598V138.838ZM154.194 147.699V129.215H159.361C160.876 129.215 162.234 129.562 163.436 130.256C164.638 130.941 165.573 131.927 166.242 133.214C166.919 134.5 167.258 135.964 167.258 137.606V139.307C167.258 140.958 166.923 142.422 166.255 143.7C165.586 144.978 164.642 145.964 163.424 146.658C162.213 147.352 160.821 147.699 159.247 147.699H154.194ZM155.756 130.548V146.379H159.26C161.206 146.379 162.768 145.736 163.944 144.449C165.121 143.154 165.709 141.406 165.709 139.206V137.581C165.709 135.457 165.129 133.755 163.969 132.477C162.81 131.199 161.282 130.556 159.386 130.548H155.756ZM169.441 146.785C169.441 146.489 169.534 146.239 169.72 146.036C169.915 145.824 170.182 145.719 170.52 145.719C170.859 145.719 171.125 145.824 171.32 146.036C171.515 146.239 171.612 146.489 171.612 146.785C171.612 147.081 171.515 147.327 171.32 147.521C171.125 147.708 170.859 147.801 170.52 147.801C170.182 147.801 169.915 147.708 169.72 147.521C169.534 147.327 169.441 147.081 169.441 146.785ZM182.479 147.699V129.215H187.646C189.161 129.215 190.52 129.562 191.721 130.256C192.923 130.941 193.858 131.927 194.527 133.214C195.204 134.5 195.543 135.964 195.543 137.606V139.307C195.543 140.958 195.208 142.422 194.54 143.7C193.871 144.978 192.927 145.964 191.709 146.658C190.498 147.352 189.106 147.699 187.532 147.699H182.479ZM184.041 130.548V146.379H187.545C189.491 146.379 191.053 145.736 192.229 144.449C193.406 143.154 193.994 141.406 193.994 139.206V137.581C193.994 135.457 193.414 133.755 192.255 132.477C191.095 131.199 189.567 130.556 187.672 130.548H184.041ZM209.723 138.838H201.078V146.379H211.018V147.699H199.516V129.215H210.955V130.548H201.078V137.517H209.723V138.838ZM227.408 141.935C227.196 143.882 226.498 145.372 225.313 146.404C224.137 147.437 222.567 147.953 220.603 147.953C219.232 147.953 218.018 147.61 216.96 146.925C215.91 146.239 215.098 145.27 214.522 144.017C213.947 142.756 213.655 141.318 213.646 139.701V137.302C213.646 135.66 213.934 134.204 214.51 132.934C215.085 131.665 215.91 130.687 216.985 130.002C218.068 129.308 219.313 128.961 220.718 128.961C222.698 128.961 224.26 129.498 225.402 130.573C226.553 131.64 227.222 133.116 227.408 135.004H225.834C225.444 131.864 223.739 130.294 220.718 130.294C219.042 130.294 217.705 130.92 216.706 132.173C215.716 133.425 215.22 135.156 215.22 137.365V139.625C215.22 141.758 215.703 143.459 216.668 144.728C217.641 145.998 218.953 146.633 220.603 146.633C222.237 146.633 223.468 146.243 224.298 145.465C225.127 144.678 225.639 143.501 225.834 141.935H227.408ZM241.411 138.838H232.765V146.379H242.706V147.699H231.204V129.215H242.642V130.548H232.765V137.517H241.411V138.838ZM259.768 147.699H258.207L247.581 131.881V147.699H246.007V129.215H247.581L258.219 145.046V129.215H259.768V147.699ZM276.628 130.548H270.293V147.699H268.731V130.548H262.409V129.215H276.628V130.548ZM286.53 140.006H281.16V147.699H279.586V129.215H285.591C287.563 129.215 289.103 129.693 290.212 130.649C291.32 131.606 291.875 132.943 291.875 134.661C291.875 135.846 291.528 136.891 290.834 137.797C290.14 138.702 289.209 139.329 288.041 139.676L292.662 147.534V147.699H290.999L286.53 140.006ZM281.16 138.673H285.946C287.258 138.673 288.312 138.3 289.107 137.556C289.903 136.811 290.301 135.846 290.301 134.661C290.301 133.358 289.886 132.346 289.056 131.627C288.227 130.907 287.063 130.548 285.565 130.548H281.16V138.673ZM306.106 142.519H297.715L295.81 147.699H294.173L301.168 129.215H302.653L309.648 147.699H308.023L306.106 142.519ZM298.197 141.186H305.611L301.904 131.119L298.197 141.186ZM313.952 146.379H323.08V147.699H312.378V129.215H313.952V146.379ZM327.993 147.699H326.431V129.215H327.993V147.699ZM333.719 146.379H345.132V147.699H331.827V146.518L342.796 130.548H332.157V129.215H344.725V130.332L333.719 146.379ZM358.792 138.838H350.146V146.379H360.087V147.699H348.585V129.215H360.023V130.548H350.146V137.517H358.792V138.838ZM363.387 147.699V129.215H368.554C370.069 129.215 371.428 129.562 372.63 130.256C373.831 130.941 374.767 131.927 375.435 133.214C376.112 134.5 376.451 135.964 376.451 137.606V139.307C376.451 140.958 376.117 142.422 375.448 143.7C374.779 144.978 373.836 145.964 372.617 146.658C371.407 147.352 370.014 147.699 368.44 147.699H363.387ZM364.949 130.548V146.379H368.453C370.399 146.379 371.961 145.736 373.137 144.449C374.314 143.154 374.902 141.406 374.902 139.206V137.581C374.902 135.457 374.322 133.755 373.163 132.477C372.003 131.199 370.476 130.556 368.58 130.548H364.949ZM378.635 146.785C378.635 146.489 378.728 146.239 378.914 146.036C379.108 145.824 379.375 145.719 379.714 145.719C380.052 145.719 380.319 145.824 380.513 146.036C380.708 146.239 380.805 146.489 380.805 146.785C380.805 147.081 380.708 147.327 380.513 147.521C380.319 147.708 380.052 147.801 379.714 147.801C379.375 147.801 379.108 147.708 378.914 147.521C378.728 147.327 378.635 147.081 378.635 146.785ZM402.134 143.154C402.134 142.13 401.774 141.322 401.054 140.729C400.335 140.128 399.019 139.561 397.106 139.028C395.193 138.487 393.797 137.898 392.917 137.264C391.664 136.366 391.038 135.19 391.038 133.734C391.038 132.321 391.618 131.174 392.777 130.294C393.945 129.405 395.435 128.961 397.246 128.961C398.473 128.961 399.569 129.198 400.534 129.672C401.507 130.146 402.26 130.806 402.794 131.652C403.327 132.499 403.594 133.442 403.594 134.483H402.019C402.019 133.222 401.588 132.211 400.724 131.449C399.861 130.679 398.702 130.294 397.246 130.294C395.832 130.294 394.707 130.611 393.869 131.246C393.031 131.872 392.612 132.693 392.612 133.709C392.612 134.648 392.989 135.414 393.742 136.007C394.495 136.599 395.701 137.124 397.36 137.581C399.019 138.03 400.276 138.499 401.131 138.99C401.985 139.473 402.629 140.052 403.06 140.729C403.492 141.406 403.708 142.206 403.708 143.129C403.708 144.585 403.124 145.752 401.956 146.633C400.796 147.513 399.264 147.953 397.36 147.953C396.057 147.953 394.859 147.72 393.767 147.255C392.684 146.789 391.859 146.138 391.292 145.3C390.733 144.462 390.454 143.501 390.454 142.418H392.015C392.015 143.721 392.502 144.75 393.475 145.503C394.449 146.256 395.744 146.633 397.36 146.633C398.799 146.633 399.954 146.315 400.826 145.681C401.698 145.046 402.134 144.204 402.134 143.154ZM420.745 139.46C420.745 141.161 420.449 142.655 419.856 143.941C419.272 145.228 418.434 146.218 417.343 146.912C416.251 147.606 414.99 147.953 413.559 147.953C411.401 147.953 409.658 147.183 408.329 145.642C407 144.094 406.336 142.007 406.336 139.384V137.479C406.336 135.795 406.632 134.306 407.224 133.011C407.825 131.707 408.672 130.709 409.763 130.015C410.855 129.312 412.112 128.961 413.534 128.961C414.956 128.961 416.208 129.304 417.292 129.989C418.384 130.675 419.226 131.644 419.818 132.896C420.411 134.149 420.719 135.6 420.745 137.251V139.46ZM419.183 137.454C419.183 135.228 418.68 133.485 417.673 132.224C416.665 130.962 415.286 130.332 413.534 130.332C411.816 130.332 410.445 130.967 409.421 132.236C408.405 133.497 407.897 135.262 407.897 137.53V139.46C407.897 141.652 408.405 143.391 409.421 144.678C410.436 145.956 411.816 146.595 413.559 146.595C415.328 146.595 416.708 145.964 417.698 144.703C418.688 143.433 419.183 141.669 419.183 139.409V137.454ZM437.769 141.935C437.558 143.882 436.859 145.372 435.675 146.404C434.498 147.437 432.928 147.953 430.965 147.953C429.594 147.953 428.379 147.61 427.321 146.925C426.272 146.239 425.459 145.27 424.884 144.017C424.308 142.756 424.016 141.318 424.008 139.701V137.302C424.008 135.66 424.295 134.204 424.871 132.934C425.446 131.665 426.272 130.687 427.346 130.002C428.43 129.308 429.674 128.961 431.079 128.961C433.059 128.961 434.621 129.498 435.763 130.573C436.914 131.64 437.583 133.116 437.769 135.004H436.195C435.806 131.864 434.1 130.294 431.079 130.294C429.403 130.294 428.066 130.92 427.067 132.173C426.077 133.425 425.582 135.156 425.582 137.365V139.625C425.582 141.758 426.064 143.459 427.029 144.728C428.002 145.998 429.314 146.633 430.965 146.633C432.598 146.633 433.83 146.243 434.659 145.465C435.488 144.678 436 143.501 436.195 141.935H437.769ZM443.469 147.699H441.908V129.215H443.469V147.699ZM458.704 142.519H450.312L448.408 147.699H446.77L453.765 129.215H455.251L462.246 147.699H460.621L458.704 142.519ZM450.795 141.186H458.209L454.502 131.119L450.795 141.186ZM466.55 146.379H475.677V147.699H464.975V129.215H466.55V146.379ZM478.191 146.785C478.191 146.489 478.284 146.239 478.47 146.036C478.665 145.824 478.932 145.719 479.27 145.719C479.609 145.719 479.875 145.824 480.07 146.036C480.265 146.239 480.362 146.489 480.362 146.785C480.362 147.081 480.265 147.327 480.07 147.521C479.875 147.708 479.609 147.801 479.27 147.801C478.932 147.801 478.665 147.708 478.47 147.521C478.284 147.327 478.191 147.081 478.191 146.785Z" fill="#8AA4FF"/>
</svg>
