<svg width="80" height="80" viewBox="0 0 80 80" fill="none" xmlns="http://www.w3.org/2000/svg">
<circle cx="40.2959" cy="40.2371" r="39.6076" fill="#7E00A3"/>
<circle cx="40.2959" cy="40.2371" r="37.2374" fill="#6184FF"/>
<circle cx="40.2959" cy="40.2371" r="34.9295" fill="#29125E"/>
<path d="M39.9936 12.318L24.5117 22.7L24.5116 35.0856L33.0723 40.9141L25.4223 46.5604V57.671L40.7222 68.053L55.2934 58.2174L54.9291 45.4676L47.6435 40.1855L54.3827 34.9034L54.747 23.0643L39.9936 12.318Z" fill="#C600FF"/>
<mask id="path-5-outside-1" maskUnits="userSpaceOnUse" x="22.1392" y="9.42041" width="37" height="62" fill="black">
<rect fill="white" x="22.1392" y="9.42041" width="37" height="62"/>
<path fill-rule="evenodd" clip-rule="evenodd" d="M39.8971 14.268L27.1342 22.9843L27.1342 34.3455L42.7173 44.9878L42.6958 45.0025H42.7847L42.7847 57.7982H38.7963L38.7963 46.1621L33.8006 42.7503L27.9319 46.7583L27.9319 57.4901L40.6947 66.2063L53.4576 57.49V46.1116L37.8811 35.4738L37.9029 35.4589L37.9029 22.9611H41.8913L41.8913 34.3604L47.2761 38.0379L52.6599 34.3611V22.9843L39.8971 14.268ZM40.6947 70.0494L40.7013 70.0539L57.4411 58.6217H57.446V58.6183L57.4526 58.6138L57.446 58.6093V45.0025H57.4311L57.4526 44.9878L50.0963 39.9639L56.6549 35.4848L56.6388 35.4738H56.6483V21.865L56.6549 21.8605L56.6483 21.856V21.8547H56.6464L39.9036 10.4204L39.8971 10.4249L39.8905 10.4204L23.1478 21.8547H23.1458V21.856L23.1392 21.8605L23.1458 21.865L23.1458 35.4738H23.1459L30.9803 40.8243L23.9435 45.63H23.9435L23.9435 58.6093L23.9369 58.6138L23.9435 58.6183V58.6217H23.9484L40.6882 70.0539L40.6947 70.0494Z"/>
</mask>
<path fill-rule="evenodd" clip-rule="evenodd" d="M39.8971 14.268L27.1342 22.9843L27.1342 34.3455L42.7173 44.9878L42.6958 45.0025H42.7847L42.7847 57.7982H38.7963L38.7963 46.1621L33.8006 42.7503L27.9319 46.7583L27.9319 57.4901L40.6947 66.2063L53.4576 57.49V46.1116L37.8811 35.4738L37.9029 35.4589L37.9029 22.9611H41.8913L41.8913 34.3604L47.2761 38.0379L52.6599 34.3611V22.9843L39.8971 14.268ZM40.6947 70.0494L40.7013 70.0539L57.4411 58.6217H57.446V58.6183L57.4526 58.6138L57.446 58.6093V45.0025H57.4311L57.4526 44.9878L50.0963 39.9639L56.6549 35.4848L56.6388 35.4738H56.6483V21.865L56.6549 21.8605L56.6483 21.856V21.8547H56.6464L39.9036 10.4204L39.8971 10.4249L39.8905 10.4204L23.1478 21.8547H23.1458V21.856L23.1392 21.8605L23.1458 21.865L23.1458 35.4738H23.1459L30.9803 40.8243L23.9435 45.63H23.9435L23.9435 58.6093L23.9369 58.6138L23.9435 58.6183V58.6217H23.9484L40.6882 70.0539L40.6947 70.0494Z" fill="#450059"/>
<path d="M27.1342 22.9843L26.5702 22.1585C26.2974 22.3448 26.1342 22.6539 26.1342 22.9843L27.1342 22.9843ZM39.8971 14.268L40.461 13.4422C40.1209 13.2099 39.6732 13.2099 39.3331 13.4422L39.8971 14.268ZM27.1342 34.3455L26.1342 34.3455C26.1342 34.6759 26.2974 34.985 26.5702 35.1713L27.1342 34.3455ZM42.7173 44.9878L43.2813 45.8136C43.5541 45.6273 43.7173 45.3182 43.7173 44.9878C43.7173 44.6574 43.5541 44.3484 43.2813 44.162L42.7173 44.9878ZM42.6958 45.0025L42.1318 44.1767C41.7696 44.4241 41.6109 44.8786 41.7403 45.2977C41.8698 45.7167 42.2572 46.0025 42.6958 46.0025V45.0025ZM42.7847 45.0025L43.7847 45.0025C43.7847 44.7373 43.6794 44.483 43.4918 44.2954C43.3043 44.1079 43.0499 44.0025 42.7847 44.0025V45.0025ZM42.7847 57.7982V58.7982C43.337 58.7982 43.7847 58.3505 43.7847 57.7982L42.7847 57.7982ZM38.7963 57.7982L37.7963 57.7982C37.7963 58.0635 37.9017 58.3178 38.0892 58.5053C38.2768 58.6929 38.5311 58.7982 38.7963 58.7982V57.7982ZM38.7963 46.1621L39.7963 46.1621C39.7963 45.8317 39.6331 45.5226 39.3603 45.3363L38.7963 46.1621ZM33.8006 42.7503L34.3645 41.9245C34.0244 41.6922 33.5767 41.6922 33.2366 41.9245L33.8006 42.7503ZM27.9319 46.7583L27.3679 45.9325C27.0951 46.1188 26.9319 46.4279 26.9319 46.7583L27.9319 46.7583ZM27.9319 57.4901L26.9319 57.4901C26.9319 57.8204 27.0951 58.1295 27.3679 58.3158L27.9319 57.4901ZM40.6947 66.2063L40.1308 67.0321C40.4709 67.2644 40.9186 67.2644 41.2587 67.0321L40.6947 66.2063ZM53.4576 57.49L54.0216 58.3158C54.2944 58.1295 54.4576 57.8204 54.4576 57.49H53.4576ZM53.4576 46.1116H54.4576C54.4576 45.7812 54.2944 45.4721 54.0216 45.2858L53.4576 46.1116ZM37.8811 35.4738L37.3171 34.648C37.0443 34.8343 36.8811 35.1434 36.8811 35.4738C36.8811 35.8042 37.0443 36.1132 37.3171 36.2996L37.8811 35.4738ZM37.9029 35.4589L38.4668 36.2847C38.7397 36.0984 38.9029 35.7893 38.9029 35.4589L37.9029 35.4589ZM37.9029 22.9611V21.9611C37.6376 21.9611 37.3833 22.0664 37.1958 22.254C37.0082 22.4415 36.9029 22.6958 36.9029 22.9611L37.9029 22.9611ZM41.8913 22.9611L42.8913 22.9611C42.8913 22.4088 42.4435 21.9611 41.8913 21.9611V22.9611ZM41.8913 34.3604L40.8913 34.3604C40.8913 34.6908 41.0545 34.9998 41.3273 35.1862L41.8913 34.3604ZM47.2761 38.0379L46.7121 38.8637C47.0522 39.096 47.5 39.096 47.8401 38.8637L47.2761 38.0379ZM52.6599 34.3611L53.2239 35.1869C53.4968 35.0005 53.6599 34.6915 53.6599 34.3611H52.6599ZM52.6599 22.9843H53.6599C53.6599 22.6539 53.4968 22.3448 53.2239 22.1585L52.6599 22.9843ZM40.6947 70.0494L41.2588 69.2237C40.9187 68.9913 40.4709 68.9913 40.1308 69.2236L40.6947 70.0494ZM40.7013 70.0539L40.1373 70.8796C40.4774 71.112 40.9252 71.112 41.2653 70.8797L40.7013 70.0539ZM57.4411 58.6217V57.6217C57.2399 57.6217 57.0433 57.6824 56.8771 57.7959L57.4411 58.6217ZM57.446 58.6217V59.6217C57.9983 59.6217 58.446 59.174 58.446 58.6217H57.446ZM57.446 58.6183L56.8821 57.7925C56.6092 57.9788 56.446 58.2879 56.446 58.6183H57.446ZM57.4526 58.6138L58.0166 59.4396C58.2894 59.2533 58.4526 58.9442 58.4526 58.6138C58.4526 58.2834 58.2894 57.9743 58.0166 57.788L57.4526 58.6138ZM57.446 58.6093H56.446C56.446 58.9397 56.6092 59.2488 56.8821 59.4351L57.446 58.6093ZM57.446 45.0025H58.446C58.446 44.4502 57.9983 44.0025 57.446 44.0025V45.0025ZM57.4311 45.0025L56.8671 44.1767C56.5049 44.4241 56.3462 44.8786 56.4756 45.2976C56.6051 45.7167 56.9925 46.0025 57.4311 46.0025V45.0025ZM57.4526 44.9878L58.0166 45.8136C58.2894 45.6273 58.4526 45.3182 58.4526 44.9878C58.4526 44.6574 58.2894 44.3484 58.0166 44.162L57.4526 44.9878ZM50.0963 39.9639L49.5324 39.1381C49.2595 39.3245 49.0963 39.6335 49.0963 39.9639C49.0963 40.2943 49.2595 40.6034 49.5324 40.7897L50.0963 39.9639ZM56.6549 35.4848L57.2189 36.3106C57.4917 36.1243 57.6549 35.8152 57.6549 35.4848C57.6549 35.1545 57.4917 34.8454 57.2189 34.659L56.6549 35.4848ZM56.6388 35.4738V34.4738C56.2002 34.4738 55.8128 34.7596 55.6833 35.1787C55.5539 35.5977 55.7126 36.0522 56.0748 36.2996L56.6388 35.4738ZM56.6483 35.4738V36.4738C57.2006 36.4738 57.6483 36.0261 57.6483 35.4738H56.6483ZM56.6483 21.865L56.0844 21.0392C55.8115 21.2255 55.6483 21.5346 55.6483 21.865H56.6483ZM56.6549 21.8605L57.2189 22.6863C57.4917 22.5 57.6549 22.1909 57.6549 21.8605C57.6549 21.5301 57.4917 21.221 57.2189 21.0347L56.6549 21.8605ZM56.6483 21.856H55.6483C55.6483 22.1864 55.8115 22.4955 56.0844 22.6818L56.6483 21.856ZM56.6483 21.8547H57.6483C57.6483 21.3024 57.2006 20.8547 56.6483 20.8547V21.8547ZM56.6464 21.8547L56.0824 22.6805C56.2486 22.7939 56.4451 22.8547 56.6464 22.8547V21.8547ZM39.9036 10.4204L40.4676 9.59461C40.1275 9.36236 39.6798 9.36234 39.3397 9.59458L39.9036 10.4204ZM39.8971 10.4249L39.333 11.2507C39.6731 11.4829 40.1209 11.483 40.461 11.2507L39.8971 10.4249ZM39.8905 10.4204L40.4545 9.59465C40.1144 9.36234 39.6667 9.36233 39.3265 9.59461L39.8905 10.4204ZM23.1478 21.8547V22.8547C23.349 22.8547 23.5456 22.7939 23.7117 22.6805L23.1478 21.8547ZM23.1458 21.8547V20.8547C22.5935 20.8547 22.1458 21.3024 22.1458 21.8547H23.1458ZM23.1458 21.856L23.7097 22.6818C23.9826 22.4955 24.1458 22.1864 24.1458 21.856H23.1458ZM23.1392 21.8605L22.5753 21.0347C22.3024 21.221 22.1392 21.5301 22.1392 21.8605C22.1392 22.1909 22.3024 22.5 22.5753 22.6863L23.1392 21.8605ZM23.1458 21.865L24.1458 21.865C24.1458 21.5346 23.9826 21.2255 23.7097 21.0392L23.1458 21.865ZM23.1458 35.4738L22.1458 35.4738C22.1458 36.0261 22.5935 36.4738 23.1458 36.4738V35.4738ZM23.1459 35.4738L23.7098 34.648C23.5437 34.5345 23.3471 34.4738 23.1459 34.4738V35.4738ZM30.9803 40.8243L31.5443 41.6501C31.8171 41.4637 31.9803 41.1547 31.9803 40.8243C31.9803 40.4939 31.8171 40.1848 31.5443 39.9985L30.9803 40.8243ZM23.9435 45.63V46.63C24.1448 46.63 24.3413 46.5692 24.5075 46.4557L23.9435 45.63ZM23.9435 45.63V44.63C23.3912 44.63 22.9435 45.0777 22.9435 45.63L23.9435 45.63ZM23.9435 58.6093L24.5074 59.4351C24.7802 59.2488 24.9435 58.9397 24.9435 58.6093L23.9435 58.6093ZM23.9369 58.6138L23.373 57.788C23.1001 57.9743 22.9369 58.2834 22.9369 58.6138C22.9369 58.9442 23.1001 59.2533 23.373 59.4396L23.9369 58.6138ZM23.9435 58.6183H24.9435C24.9435 58.2879 24.7802 57.9788 24.5074 57.7925L23.9435 58.6183ZM23.9435 58.6217H22.9435C22.9435 59.174 23.3912 59.6217 23.9435 59.6217V58.6217ZM23.9484 58.6217L24.5124 57.7959C24.3462 57.6824 24.1496 57.6217 23.9484 57.6217V58.6217ZM40.6882 70.0539L40.1242 70.8797C40.4643 71.112 40.912 71.112 41.2521 70.8797L40.6882 70.0539ZM27.6981 23.8101L40.461 15.0938L39.3331 13.4422L26.5702 22.1585L27.6981 23.8101ZM28.1342 34.3455L28.1342 22.9843L26.1342 22.9843L26.1342 34.3455L28.1342 34.3455ZM43.2813 44.162L27.6981 33.5197L26.5702 35.1713L42.1533 45.8136L43.2813 44.162ZM43.2597 45.8283L43.2813 45.8136L42.1533 44.162L42.1318 44.1767L43.2597 45.8283ZM42.7847 44.0025H42.6958V46.0025H42.7847V44.0025ZM43.7847 57.7982L43.7847 45.0025L41.7847 45.0025L41.7847 57.7982L43.7847 57.7982ZM38.7963 58.7982H42.7847V56.7982H38.7963V58.7982ZM37.7963 46.1621L37.7963 57.7982L39.7963 57.7982L39.7963 46.1621L37.7963 46.1621ZM33.2366 43.5761L38.2324 46.9879L39.3603 45.3363L34.3645 41.9245L33.2366 43.5761ZM28.4958 47.5841L34.3645 43.5761L33.2366 41.9245L27.3679 45.9325L28.4958 47.5841ZM28.9319 57.4901L28.9319 46.7583L26.9319 46.7583L26.9319 57.4901L28.9319 57.4901ZM27.3679 58.3158L40.1308 67.0321L41.2587 65.3805L28.4958 56.6643L27.3679 58.3158ZM52.8937 56.6643L40.1308 65.3805L41.2587 67.0321L54.0216 58.3158L52.8937 56.6643ZM52.4576 46.1116V57.49H54.4576V46.1116H52.4576ZM37.3171 36.2996L52.8937 46.9374L54.0216 45.2858L38.4451 34.648L37.3171 36.2996ZM37.3389 34.6331L37.3171 34.648L38.4451 36.2996L38.4668 36.2847L37.3389 34.6331ZM36.9029 22.9611L36.9029 35.4589L38.9029 35.4589L38.9029 22.9611L36.9029 22.9611ZM41.8913 21.9611H37.9029V23.9611H41.8913V21.9611ZM42.8913 34.3604L42.8913 22.9611L40.8913 22.9611L40.8913 34.3604L42.8913 34.3604ZM47.8401 37.2121L42.4552 33.5346L41.3273 35.1862L46.7121 38.8637L47.8401 37.2121ZM52.096 33.5353L46.7121 37.2121L47.8401 38.8637L53.2239 35.1869L52.096 33.5353ZM51.6599 22.9843V34.3611H53.6599V22.9843H51.6599ZM39.3331 15.0938L52.096 23.8101L53.2239 22.1585L40.461 13.4422L39.3331 15.0938ZM40.1307 70.8751L40.1373 70.8796L41.2654 69.2282L41.2588 69.2237L40.1307 70.8751ZM41.2653 70.8797L58.0051 59.4475L56.8771 57.7959L40.1374 69.2281L41.2653 70.8797ZM57.4411 59.6217H57.446V57.6217H57.4411V59.6217ZM58.446 58.6217V58.6183H56.446V58.6217H58.446ZM58.01 59.4441L58.0166 59.4396L56.8887 57.788L56.8821 57.7925L58.01 59.4441ZM58.0166 57.788L58.01 57.7835L56.8821 59.4351L56.8887 59.4396L58.0166 57.788ZM58.446 58.6093V45.0025H56.446V58.6093H58.446ZM57.446 44.0025H57.4311V46.0025H57.446V44.0025ZM57.995 45.8283L58.0166 45.8136L56.8887 44.162L56.8671 44.1767L57.995 45.8283ZM58.0166 44.162L50.6603 39.1381L49.5324 40.7897L56.8886 45.8136L58.0166 44.162ZM50.6603 40.7897L57.2189 36.3106L56.091 34.659L49.5324 39.1381L50.6603 40.7897ZM57.2189 34.659L57.2028 34.648L56.0748 36.2996L56.0909 36.3106L57.2189 34.659ZM56.6388 36.4738H56.6483V34.4738H56.6388V36.4738ZM57.6483 35.4738V21.865H55.6483V35.4738H57.6483ZM57.2123 22.6908L57.2189 22.6863L56.091 21.0347L56.0844 21.0392L57.2123 22.6908ZM57.2189 21.0347L57.2123 21.0302L56.0844 22.6818L56.091 22.6863L57.2189 21.0347ZM57.6483 21.856V21.8547H55.6483V21.856H57.6483ZM56.6483 20.8547H56.6464V22.8547H56.6483V20.8547ZM57.2103 21.0289L40.4676 9.59461L39.3397 11.2462L56.0824 22.6805L57.2103 21.0289ZM39.3397 9.59458L39.3332 9.59906L40.461 11.2507L40.4676 11.2462L39.3397 9.59458ZM40.4611 9.59914L40.4545 9.59465L39.3265 11.2462L39.333 11.2507L40.4611 9.59914ZM39.3265 9.59461L22.5838 21.0289L23.7117 22.6805L40.4545 11.2462L39.3265 9.59461ZM23.1478 20.8547H23.1458V22.8547H23.1478V20.8547ZM22.1458 21.8547V21.856H24.1458V21.8547H22.1458ZM22.5818 21.0302L22.5753 21.0347L23.7032 22.6863L23.7097 22.6818L22.5818 21.0302ZM22.5753 22.6863L22.5818 22.6908L23.7097 21.0392L23.7032 21.0347L22.5753 22.6863ZM22.1458 21.865L22.1458 35.4738L24.1458 35.4738L24.1458 21.865L22.1458 21.865ZM23.1458 36.4738H23.1459V34.4738H23.1458V36.4738ZM22.5819 36.2996L30.4164 41.6501L31.5443 39.9985L23.7098 34.648L22.5819 36.2996ZM30.4164 39.9985L23.3796 44.8042L24.5075 46.4557L31.5443 41.6501L30.4164 39.9985ZM23.9435 44.63H23.9435V46.63H23.9435V44.63ZM22.9435 45.63L22.9435 58.6093L24.9435 58.6093L24.9435 45.63L22.9435 45.63ZM24.5008 59.4396L24.5074 59.4351L23.3795 57.7835L23.373 57.788L24.5008 59.4396ZM24.5074 57.7925L24.5008 57.788L23.373 59.4396L23.3795 59.4441L24.5074 57.7925ZM22.9435 58.6183V58.6217H24.9435V58.6183H22.9435ZM23.9435 59.6217H23.9484V57.6217H23.9435V59.6217ZM41.2521 69.2281L24.5124 57.7959L23.3844 59.4475L40.1242 70.8797L41.2521 69.2281ZM40.1308 69.2236L40.1242 69.2281L41.2521 70.8797L41.2587 70.8752L40.1308 69.2236Z" fill="#C600FF" mask="url(#path-5-outside-1)"/>
</svg>
