<svg width="509" height="182" viewBox="0 0 509 182" fill="none" xmlns="http://www.w3.org/2000/svg">
<rect width="508.453" height="181.142" fill="#29125E"/>
<circle cx="61.2329" cy="62.4556" r="39.8589" fill="#7E00A3"/>
<circle cx="61.2329" cy="62.4556" r="37.4736" fill="#6184FF"/>
<circle cx="61.2329" cy="62.4556" r="35.1511" fill="#29125E"/>
<rect x="61.4578" y="80.4487" width="22.9413" height="35.9863" transform="rotate(-180 61.4578 80.4487)" fill="#6184FF"/>
<rect x="83.9492" y="80.4487" width="22.9413" height="35.9863" transform="rotate(-180 83.9492 80.4487)" fill="#29125E"/>
<path d="M61.2122 80.4487L38.7207 44.4624L83.7036 44.4624L61.2122 80.4487Z" fill="#C600FF"/>
<path d="M137.476 95.6872C132.346 95.6872 128.04 94.9588 124.556 93.5022C121.136 92.0455 118.603 90.3038 116.956 88.2772C115.31 86.2505 114.486 84.4455 114.486 82.8622C114.486 82.2288 114.708 81.7222 115.151 81.3422C115.658 80.8988 116.196 80.6772 116.766 80.6772H127.596C127.976 80.6772 128.325 80.8355 128.641 81.1522C129.401 81.6588 129.971 82.0705 130.351 82.3872C131.745 83.4005 132.948 84.1605 133.961 84.6672C135.038 85.1105 136.336 85.3322 137.856 85.3322C139.693 85.3322 141.181 84.9838 142.321 84.2872C143.525 83.5272 144.126 82.4822 144.126 81.1522C144.126 80.0755 143.81 79.2205 143.176 78.5872C142.606 77.9538 141.466 77.3522 139.756 76.7822C138.046 76.1488 135.45 75.4838 131.966 74.7872C126.71 73.7105 122.656 71.9688 119.806 69.5622C117.02 67.0922 115.626 63.7988 115.626 59.6822C115.626 57.0855 116.45 54.6155 118.096 52.2722C119.743 49.9288 122.181 48.0288 125.411 46.5722C128.705 45.1155 132.6 44.3872 137.096 44.3872C141.593 44.3872 145.52 45.0838 148.876 46.4772C152.233 47.8705 154.766 49.5805 156.476 51.6072C158.25 53.5705 159.136 55.3755 159.136 57.0222C159.136 57.5922 158.915 58.0988 158.471 58.5422C158.091 58.9855 157.616 59.2072 157.046 59.2072H147.166C146.66 59.2072 146.185 59.0488 145.741 58.7322C144.918 58.2888 144.19 57.8138 143.556 57.3072C142.48 56.4838 141.466 55.8505 140.516 55.4072C139.566 54.9638 138.395 54.7422 137.001 54.7422C135.355 54.7422 134.025 55.1222 133.011 55.8822C132.061 56.6422 131.586 57.6238 131.586 58.8272C131.586 59.7772 131.84 60.5688 132.346 61.2022C132.916 61.8355 134.056 62.4688 135.766 63.1022C137.54 63.6722 140.136 64.2738 143.556 64.9072C149.7 65.9838 154.165 67.8838 156.951 70.6072C159.801 73.3305 161.226 76.5288 161.226 80.2022C161.226 84.8888 159.136 88.6572 154.956 91.5072C150.776 94.2938 144.95 95.6872 137.476 95.6872ZM193.026 95.6872C185.173 95.6872 179.124 93.8188 174.881 90.0822C170.638 86.3455 168.326 81.0888 167.946 74.3122C167.883 73.4888 167.851 72.0638 167.851 70.0372C167.851 68.0105 167.883 66.5855 167.946 65.7622C168.326 59.0488 170.701 53.8238 175.071 50.0872C179.441 46.2872 185.426 44.3872 193.026 44.3872C200.689 44.3872 206.706 46.2872 211.076 50.0872C215.446 53.8238 217.821 59.0488 218.201 65.7622C218.264 66.5855 218.296 68.0105 218.296 70.0372C218.296 72.0638 218.264 73.4888 218.201 74.3122C217.821 81.0888 215.509 86.3455 211.266 90.0822C207.023 93.8188 200.943 95.6872 193.026 95.6872ZM193.026 84.0972C195.813 84.0972 197.871 83.2738 199.201 81.6272C200.531 79.9172 201.291 77.3205 201.481 73.8372C201.544 73.2038 201.576 71.9372 201.576 70.0372C201.576 68.1372 201.544 66.8705 201.481 66.2372C201.291 62.8172 200.499 60.2522 199.106 58.5422C197.776 56.8322 195.749 55.9772 193.026 55.9772C187.769 55.9772 184.983 59.3972 184.666 66.2372L184.571 70.0372L184.666 73.8372C184.793 77.3205 185.521 79.9172 186.851 81.6272C188.244 83.2738 190.303 84.0972 193.026 84.0972ZM248.062 95.6872C242.932 95.6872 238.626 94.9588 235.142 93.5022C231.722 92.0455 229.189 90.3038 227.542 88.2772C225.896 86.2505 225.072 84.4455 225.072 82.8622C225.072 82.2288 225.294 81.7222 225.737 81.3422C226.244 80.8988 226.782 80.6772 227.352 80.6772H238.182C238.562 80.6772 238.911 80.8355 239.227 81.1522C239.987 81.6588 240.557 82.0705 240.937 82.3872C242.331 83.4005 243.534 84.1605 244.547 84.6672C245.624 85.1105 246.922 85.3322 248.442 85.3322C250.279 85.3322 251.767 84.9838 252.907 84.2872C254.111 83.5272 254.712 82.4822 254.712 81.1522C254.712 80.0755 254.396 79.2205 253.762 78.5872C253.192 77.9538 252.052 77.3522 250.342 76.7822C248.632 76.1488 246.036 75.4838 242.552 74.7872C237.296 73.7105 233.242 71.9688 230.392 69.5622C227.606 67.0922 226.212 63.7988 226.212 59.6822C226.212 57.0855 227.036 54.6155 228.682 52.2722C230.329 49.9288 232.767 48.0288 235.997 46.5722C239.291 45.1155 243.186 44.3872 247.682 44.3872C252.179 44.3872 256.106 45.0838 259.462 46.4772C262.819 47.8705 265.352 49.5805 267.062 51.6072C268.836 53.5705 269.722 55.3755 269.722 57.0222C269.722 57.5922 269.501 58.0988 269.057 58.5422C268.677 58.9855 268.202 59.2072 267.632 59.2072H257.752C257.246 59.2072 256.771 59.0488 256.327 58.7322C255.504 58.2888 254.776 57.8138 254.142 57.3072C253.066 56.4838 252.052 55.8505 251.102 55.4072C250.152 54.9638 248.981 54.7422 247.587 54.7422C245.941 54.7422 244.611 55.1222 243.597 55.8822C242.647 56.6422 242.172 57.6238 242.172 58.8272C242.172 59.7772 242.426 60.5688 242.932 61.2022C243.502 61.8355 244.642 62.4688 246.352 63.1022C248.126 63.6722 250.722 64.2738 254.142 64.9072C260.286 65.9838 264.751 67.8838 267.537 70.6072C270.387 73.3305 271.812 76.5288 271.812 80.2022C271.812 84.8888 269.722 88.6572 265.542 91.5072C261.362 94.2938 255.536 95.6872 248.062 95.6872ZM303.612 95.6872C295.759 95.6872 289.71 93.8188 285.467 90.0822C281.224 86.3455 278.912 81.0888 278.532 74.3122C278.469 73.4888 278.437 72.0638 278.437 70.0372C278.437 68.0105 278.469 66.5855 278.532 65.7622C278.912 59.0488 281.287 53.8238 285.657 50.0872C290.027 46.2872 296.012 44.3872 303.612 44.3872C311.275 44.3872 317.292 46.2872 321.662 50.0872C326.032 53.8238 328.407 59.0488 328.787 65.7622C328.85 66.5855 328.882 68.0105 328.882 70.0372C328.882 72.0638 328.85 73.4888 328.787 74.3122C328.407 81.0888 326.095 86.3455 321.852 90.0822C317.609 93.8188 311.529 95.6872 303.612 95.6872ZM303.612 84.0972C306.399 84.0972 308.457 83.2738 309.787 81.6272C311.117 79.9172 311.877 77.3205 312.067 73.8372C312.13 73.2038 312.162 71.9372 312.162 70.0372C312.162 68.1372 312.13 66.8705 312.067 66.2372C311.877 62.8172 311.085 60.2522 309.692 58.5422C308.362 56.8322 306.335 55.9772 303.612 55.9772C298.355 55.9772 295.569 59.3972 295.252 66.2372L295.157 70.0372L295.252 73.8372C295.379 77.3205 296.107 79.9172 297.437 81.6272C298.83 83.2738 300.889 84.0972 303.612 84.0972ZM340.693 94.7372C340.06 94.7372 339.49 94.5155 338.983 94.0722C338.54 93.5655 338.318 92.9955 338.318 92.3622V29.6622C338.318 28.9655 338.54 28.3955 338.983 27.9522C339.49 27.5088 340.06 27.2872 340.693 27.2872H351.903C352.6 27.2872 353.17 27.5088 353.613 27.9522C354.057 28.3955 354.278 28.9655 354.278 29.6622V92.3622C354.278 93.0588 354.057 93.6288 353.613 94.0722C353.17 94.5155 352.6 94.7372 351.903 94.7372H340.693Z" fill="#C600FF"/>
<path d="M29.7717 128.285L36.5891 144.598L43.4318 128.285H45.5139V146.769H43.9523V138.72L44.0793 130.468L37.1984 146.769H35.9924L29.1369 130.532L29.2639 138.67V146.769H27.7023V128.285H29.7717ZM63.8586 138.53C63.8586 140.231 63.5624 141.725 62.9699 143.011C62.3859 144.298 61.548 145.288 60.4562 145.982C59.3644 146.676 58.1034 147.023 56.673 147.023C54.5148 147.023 52.7713 146.253 51.4426 144.713C50.1138 143.164 49.4494 141.078 49.4494 138.454V136.55C49.4494 134.865 49.7456 133.376 50.3381 132.081C50.939 130.777 51.7853 129.779 52.8771 129.085C53.9689 128.382 55.2258 128.031 56.6476 128.031C58.0695 128.031 59.3221 128.374 60.4055 129.059C61.4973 129.745 62.3394 130.714 62.9318 131.967C63.5243 133.219 63.8332 134.671 63.8586 136.321V138.53ZM62.2971 136.524C62.2971 134.298 61.7935 132.555 60.7863 131.294C59.7792 130.033 58.3996 129.402 56.6476 129.402C54.9295 129.402 53.5585 130.037 52.5344 131.306C51.5187 132.567 51.0109 134.332 51.0109 136.6V138.53C51.0109 140.722 51.5187 142.461 52.5344 143.748C53.55 145.026 54.9295 145.665 56.673 145.665C58.4419 145.665 59.8215 145.034 60.8117 143.773C61.8019 142.504 62.2971 140.739 62.2971 138.479V136.524ZM81.5558 146.769H79.9943L69.3683 130.951V146.769H67.7941V128.285H69.3683L80.007 144.116V128.285H81.5558V146.769ZM96.4601 137.908H87.8146V145.449H97.7551V146.769H86.2531V128.285H97.6916V129.618H87.8146V136.588H96.4601V137.908ZM113.853 129.618H107.518V146.769H105.956V129.618H99.634V128.285H113.853V129.618ZM118.753 146.769H117.192V128.285H118.753V146.769ZM124.479 145.449H135.892V146.769H122.587V145.589L133.556 129.618H122.917V128.285H135.486V129.402L124.479 145.449ZM149.552 137.908H140.906V145.449H150.847V146.769H139.345V128.285H150.783V129.618H140.906V136.588H149.552V137.908ZM154.148 146.769V128.285H159.315C160.83 128.285 162.188 128.632 163.39 129.326C164.592 130.011 165.527 130.997 166.195 132.284C166.873 133.57 167.211 135.035 167.211 136.676V138.378C167.211 140.028 166.877 141.492 166.208 142.77C165.54 144.048 164.596 145.034 163.377 145.728C162.167 146.422 160.775 146.769 159.2 146.769H154.148ZM155.709 129.618V145.449H159.213C161.16 145.449 162.721 144.806 163.898 143.519C165.074 142.224 165.662 140.477 165.662 138.276V136.651C165.662 134.527 165.083 132.826 163.923 131.548C162.764 130.27 161.236 129.626 159.34 129.618H155.709ZM169.395 145.855C169.395 145.559 169.488 145.309 169.674 145.106C169.869 144.895 170.135 144.789 170.474 144.789C170.812 144.789 171.079 144.895 171.274 145.106C171.468 145.309 171.566 145.559 171.566 145.855C171.566 146.151 171.468 146.397 171.274 146.592C171.079 146.778 170.812 146.871 170.474 146.871C170.135 146.871 169.869 146.778 169.674 146.592C169.488 146.397 169.395 146.151 169.395 145.855ZM182.433 146.769V128.285H187.6C189.115 128.285 190.473 128.632 191.675 129.326C192.877 130.011 193.812 130.997 194.481 132.284C195.158 133.57 195.496 135.035 195.496 136.676V138.378C195.496 140.028 195.162 141.492 194.493 142.77C193.825 144.048 192.881 145.034 191.662 145.728C190.452 146.422 189.06 146.769 187.486 146.769H182.433ZM183.994 129.618V145.449H187.498C189.445 145.449 191.006 144.806 192.183 143.519C193.359 142.224 193.947 140.477 193.947 138.276V136.651C193.947 134.527 193.368 132.826 192.208 131.548C191.049 130.27 189.521 129.626 187.625 129.618H183.994ZM209.677 137.908H201.031V145.449H210.972V146.769H199.47V128.285H210.908V129.618H201.031V136.588H209.677V137.908ZM227.362 141.006C227.15 142.952 226.452 144.442 225.267 145.474C224.09 146.507 222.52 147.023 220.557 147.023C219.186 147.023 217.971 146.68 216.913 145.995C215.864 145.309 215.051 144.34 214.476 143.088C213.9 141.827 213.608 140.388 213.6 138.771V136.372C213.6 134.73 213.888 133.274 214.463 132.005C215.039 130.735 215.864 129.758 216.939 129.072C218.022 128.378 219.266 128.031 220.671 128.031C222.652 128.031 224.213 128.568 225.356 129.643C226.507 130.71 227.175 132.187 227.362 134.074H225.787C225.398 130.934 223.693 129.364 220.671 129.364C218.995 129.364 217.658 129.99 216.659 131.243C215.669 132.495 215.174 134.226 215.174 136.435V138.695C215.174 140.828 215.656 142.529 216.621 143.799C217.595 145.068 218.906 145.703 220.557 145.703C222.19 145.703 223.422 145.314 224.251 144.535C225.081 143.748 225.593 142.571 225.787 141.006H227.362ZM241.364 137.908H232.719V145.449H242.659V146.769H231.157V128.285H242.596V129.618H232.719V136.588H241.364V137.908ZM259.722 146.769H258.16L247.534 130.951V146.769H245.96V128.285H247.534L258.173 144.116V128.285H259.722V146.769ZM276.581 129.618H270.246V146.769H268.685V129.618H262.362V128.285H276.581V129.618ZM286.484 139.076H281.113V146.769H279.539V128.285H285.544C287.516 128.285 289.056 128.763 290.165 129.719C291.274 130.676 291.828 132.013 291.828 133.731C291.828 134.916 291.481 135.961 290.787 136.867C290.093 137.772 289.162 138.399 287.994 138.746L292.615 146.604V146.769H290.952L286.484 139.076ZM281.113 137.743H285.9C287.211 137.743 288.265 137.37 289.061 136.626C289.856 135.881 290.254 134.916 290.254 133.731C290.254 132.428 289.839 131.416 289.01 130.697C288.181 129.978 287.017 129.618 285.519 129.618H281.113V137.743ZM306.06 141.59H297.668L295.764 146.769H294.126L301.121 128.285H302.607L309.602 146.769H307.977L306.06 141.59ZM298.151 140.257H305.565L301.858 130.189L298.151 140.257ZM313.905 145.449H323.033V146.769H312.331V128.285H313.905V145.449ZM327.946 146.769H326.385V128.285H327.946V146.769ZM333.672 145.449H345.085V146.769H331.78V145.589L342.749 129.618H332.111V128.285H344.679V129.402L333.672 145.449ZM358.745 137.908H350.1V145.449H360.04V146.769H348.538V128.285H359.977V129.618H350.1V136.588H358.745V137.908ZM363.341 146.769V128.285H368.508C370.023 128.285 371.381 128.632 372.583 129.326C373.785 130.011 374.72 130.997 375.389 132.284C376.066 133.57 376.404 135.035 376.404 136.676V138.378C376.404 140.028 376.07 141.492 375.402 142.77C374.733 144.048 373.789 145.034 372.57 145.728C371.36 146.422 369.968 146.769 368.394 146.769H363.341ZM364.903 129.618V145.449H368.406C370.353 145.449 371.915 144.806 373.091 143.519C374.267 142.224 374.856 140.477 374.856 138.276V136.651C374.856 134.527 374.276 132.826 373.116 131.548C371.957 130.27 370.429 129.626 368.533 129.618H364.903ZM378.588 145.855C378.588 145.559 378.681 145.309 378.867 145.106C379.062 144.895 379.329 144.789 379.667 144.789C380.006 144.789 380.272 144.895 380.467 145.106C380.662 145.309 380.759 145.559 380.759 145.855C380.759 146.151 380.662 146.397 380.467 146.592C380.272 146.778 380.006 146.871 379.667 146.871C379.329 146.871 379.062 146.778 378.867 146.592C378.681 146.397 378.588 146.151 378.588 145.855ZM402.087 142.224C402.087 141.2 401.727 140.392 401.008 139.8C400.289 139.199 398.973 138.632 397.06 138.098C395.147 137.557 393.751 136.968 392.87 136.334C391.618 135.437 390.991 134.26 390.991 132.804C390.991 131.391 391.571 130.244 392.731 129.364C393.899 128.475 395.388 128.031 397.199 128.031C398.427 128.031 399.523 128.268 400.487 128.742C401.461 129.216 402.214 129.876 402.747 130.722C403.28 131.569 403.547 132.512 403.547 133.553H401.973C401.973 132.292 401.541 131.281 400.678 130.519C399.815 129.749 398.655 129.364 397.199 129.364C395.786 129.364 394.66 129.681 393.822 130.316C392.985 130.942 392.566 131.763 392.566 132.779C392.566 133.718 392.942 134.484 393.695 135.077C394.449 135.669 395.655 136.194 397.314 136.651C398.973 137.1 400.229 137.569 401.084 138.06C401.939 138.543 402.582 139.122 403.014 139.8C403.445 140.477 403.661 141.276 403.661 142.199C403.661 143.655 403.077 144.823 401.909 145.703C400.75 146.583 399.218 147.023 397.314 147.023C396.01 147.023 394.813 146.79 393.721 146.325C392.638 145.859 391.812 145.208 391.245 144.37C390.687 143.532 390.407 142.571 390.407 141.488H391.969C391.969 142.791 392.456 143.82 393.429 144.573C394.402 145.326 395.697 145.703 397.314 145.703C398.752 145.703 399.908 145.385 400.779 144.751C401.651 144.116 402.087 143.274 402.087 142.224ZM420.698 138.53C420.698 140.231 420.402 141.725 419.81 143.011C419.226 144.298 418.388 145.288 417.296 145.982C416.204 146.676 414.943 147.023 413.513 147.023C411.355 147.023 409.611 146.253 408.282 144.713C406.954 143.164 406.289 141.078 406.289 138.454V136.55C406.289 134.865 406.585 133.376 407.178 132.081C407.779 130.777 408.625 129.779 409.717 129.085C410.809 128.382 412.066 128.031 413.487 128.031C414.909 128.031 416.162 128.374 417.245 129.059C418.337 129.745 419.179 130.714 419.772 131.967C420.364 133.219 420.673 134.671 420.698 136.321V138.53ZM419.137 136.524C419.137 134.298 418.633 132.555 417.626 131.294C416.619 130.033 415.239 129.402 413.487 129.402C411.769 129.402 410.398 130.037 409.374 131.306C408.359 132.567 407.851 134.332 407.851 136.6V138.53C407.851 140.722 408.359 142.461 409.374 143.748C410.39 145.026 411.769 145.665 413.513 145.665C415.282 145.665 416.661 145.034 417.652 143.773C418.642 142.504 419.137 140.739 419.137 138.479V136.524ZM437.723 141.006C437.511 142.952 436.813 144.442 435.628 145.474C434.452 146.507 432.882 147.023 430.918 147.023C429.547 147.023 428.333 146.68 427.275 145.995C426.225 145.309 425.413 144.34 424.837 143.088C424.262 141.827 423.97 140.388 423.961 138.771V136.372C423.961 134.73 424.249 133.274 424.824 132.005C425.4 130.735 426.225 129.758 427.3 129.072C428.383 128.378 429.627 128.031 431.032 128.031C433.013 128.031 434.574 128.568 435.717 129.643C436.868 130.71 437.537 132.187 437.723 134.074H436.149C435.759 130.934 434.054 129.364 431.032 129.364C429.357 129.364 428.019 129.99 427.021 131.243C426.03 132.495 425.535 134.226 425.535 136.435V138.695C425.535 140.828 426.018 142.529 426.983 143.799C427.956 145.068 429.268 145.703 430.918 145.703C432.552 145.703 433.783 145.314 434.612 144.535C435.442 143.748 435.954 142.571 436.149 141.006H437.723ZM443.423 146.769H441.862V128.285H443.423V146.769ZM458.657 141.59H450.266L448.362 146.769H446.724L453.719 128.285H455.204L462.199 146.769H460.574L458.657 141.59ZM450.748 140.257H458.162L454.455 130.189L450.748 140.257ZM466.503 145.449H475.631V146.769H464.929V128.285H466.503V145.449ZM478.145 145.855C478.145 145.559 478.238 145.309 478.424 145.106C478.619 144.895 478.885 144.789 479.224 144.789C479.562 144.789 479.829 144.895 480.024 145.106C480.218 145.309 480.316 145.559 480.316 145.855C480.316 146.151 480.218 146.397 480.024 146.592C479.829 146.778 479.562 146.871 479.224 146.871C478.885 146.871 478.619 146.778 478.424 146.592C478.238 146.397 478.145 146.151 478.145 145.855Z" fill="#8AA4FF"/>
</svg>
